<?xml version="1.0" encoding="UTF-8" standalone="no"?><!DOCTYPE svg PUBLIC "-//W3C//DTD SVG 1.1//EN" "http://www.w3.org/Graphics/SVG/1.1/DTD/svg11.dtd"><svg width="100%" height="100%" viewBox="0 0 100 100" version="1.1" xmlns="http://www.w3.org/2000/svg" xmlns:xlink="http://www.w3.org/1999/xlink" xml:space="preserve" xmlns:serif="http://www.serif.com/" style="fill-rule:evenodd;clip-rule:evenodd;stroke-linejoin:round;stroke-miterlimit:2;"><path d="M47.725,4.8l0,50.48l-9.9,-9.9c-1.1,-1.1 -2.8,-1.1 -3.9,0c-1.1,1.1 -1.1,2.8 0,3.9l16.6,16.5l1.9,-1.9l14.6,-14.6c0.5,-0.5 0.8,-1.2 0.8,-1.9c0,-0.7 -0.3,-1.4 -0.8,-1.9c-1.1,-1.1 -2.8,-1.1 -3.9,0l-9.9,9.9l0,-50.48c0,-1.5 -1.2,-2.8 -2.8,-2.8c-1.4,0 -2.7,1.2 -2.7,2.7Z" style="fill-rule:nonzero;"/></svg>