<svg xmlns="http://www.w3.org/2000/svg" viewBox="0 0 104 161">
	<defs>
		<style>
      .cls-1{fill:#c24f67}.cls-10{fill:#632743}.cls-14{fill:#3e001e}
		</style>
		<clipPath id="clip-path">
			<rect class="cls-1" width="23" height="31" rx="11.5" transform="translate(49 84)"/>
		</clipPath>
		<clipPath id="clip-Canvas">
			<path d="M0 0h104v161H0z"/>
		</clipPath>
	</defs>
	<g clip-path="url(#clip-Canvas)">
		<path d="M22.358 52.96A44.86 44.86 0 0 1 83.44 69.23l14.57 25.087a44.308 44.308 0 0 1-16.367 60.723 44.86 44.86 0 0 1-61.082-16.27l-14.57-25.088A44.309 44.309 0 0 1 22.358 52.96z" fill="#e297ac"/>
		<path d="M59.031 95c35.136 0 44.023 30.926 43.975 31.292a12.815 12.815 0 0 1-.314 1.293 44.355 44.355 0 0 1-20.986 27.455 44.96 44.96 0 0 1-61.17-16.27l-4.26-7.324c-.086-.148-.141-.27-.261-.448S22.434 95 59.031 95z" fill="#f9b71a"/>
		<path d="M38.68 156a44.627 44.627 0 0 1-8.865-6h59a45 45 0 0 1-7.106 5.039q-.876.5-1.765.96zm-13.774-11a44.7 44.7 0 0 1-4.234-6h77.3a44.231 44.231 0 0 1-4.237 6zm-7.143-11l-1.486-2.555c-.086-.148-.142-.27-.261-.448a20.051 20.051 0 0 1 .678-3h85.889a44.48 44.48 0 0 1-2.082 6zm.632-11a52.539 52.539 0 0 1 2.841-6h77.61a46.693 46.693 0 0 1 3.022 6zm6.021-11a43.277 43.277 0 0 1 5.25-6H89.8a45.231 45.231 0 0 1 5.622 6zm11.769-11c5.86-3.581 13.341-6 22.847-6a46.774 46.774 0 0 1 23.851 6z" fill="#faeac5"/>
		<path d="M59.031 95c16.337 0 27 6.686 33.727 13.878C98.236 114.733 83.158 138 60 138s-40.905-19.461-33-29.231C33.493 101.38 43.585 95 59.031 95z" fill="rgba(187,87,33,.55)" opacity=".42"/>
		<path d="M59.088 95c10.752 0 15.769.354 20.2 5.037C84.321 105.621 76.879 124 59.726 124s-24.921-17.672-19.72-24.034C44.281 95.155 48.923 95 59.088 95z" fill="#edc18d"/>
		<rect class="cls-1" width="23" height="31" rx="11.5" transform="translate(49 84)"/>
		<g clip-path="url(#clip-path)">
			<path d="M58 86h5a9 9 0 0 1 0 18h-5a9 9 0 0 1 0-18z" fill="rgba(111,47,57,.53)" opacity=".38"/>
		</g>
		<path class="cls-10" d="M61 12a35 35 0 0 1 35 35v10.96A28.04 28.04 0 0 1 67.96 86H54.04A28.04 28.04 0 0 1 26 57.96V47a35 35 0 0 1 35-35z"/>
		<rect width="60" height="80" rx="30" transform="translate(31 19)" fill="#c75667"/>
		<path d="M78.611 82.617c-2.442-1.165-3.352-4.623-2.032-7.726s4.368-4.673 6.809-3.509 3.352 4.623 2.032 7.726A5.905 5.905 0 0 1 80.316 83a3.935 3.935 0 0 1-1.705-.383zm-42-3.509c-1.311-3.1-.407-6.561 2.02-7.726s5.456.408 6.767 3.509.408 6.561-2.02 7.726A3.89 3.89 0 0 1 41.68 83a5.873 5.873 0 0 1-5.073-3.892z" fill="#af4555"/>
		<path d="M91 71V50h1a9 9 0 0 1 9 9v3a9 9 0 0 1-9 9zm-61 0a9 9 0 0 1-9-9v-3a9 9 0 0 1 9-9h1v21z" fill="#b84758"/>
		<path class="cls-14" d="M71 65a3 3 0 1 1 3 3 3 3 0 0 1-3-3zm-27 0a3 3 0 1 1 3 3 3 3 0 0 1-3-3zM70 59a2 2 0 0 1 0-4h8a2 2 0 0 1 0 4zm-27 0a2 2 0 0 1 0-4h8a2 2 0 0 1 0 4z"/>
		<path d="M54 79a14.488 14.488 0 0 0 7 2 9.194 9.194 0 0 0 6-2" fill="none" stroke="#9f3347" stroke-linecap="round" stroke-linejoin="round" stroke-width="3"/>
		<path d="M42 25a23.552 23.552 0 0 0 18 8c11.853 0 18-10 18-10s-5.3-6-19-6-17 8-17 8z" fill="rgba(113,40,51,.55)" opacity=".4"/>
		<path d="M76 131h9a1 1 0 0 1 1 1v5.5a5.5 5.5 0 0 1-5.5 5.5 5.5 5.5 0 0 1-5.5-5.5V132a1 1 0 0 1 1-1z" fill="#ca810e"/>
		<path class="cls-10" d="M31.551 60.887s-1-22.5 2.126-27.83 9.567-8.906 9.567-8.906 5.645 2.226 15.944 2.226 15.945-2.226 15.945-2.226 10.322 3.149 11.692 8.906S91.077 62 91.077 62s6.035-23.862 3.189-32.283S68.373 3 57.062 3 39.707 9.035 41.118 16.358C39.9 16.4 28.9 18.015 27.3 28.6s4.251 32.287 4.251 32.287zM66 80.917a10.179 10.179 0 0 1-5.5-3.417 10.182 10.182 0 0 1-5.5 3.417c-2.816.431-11.489-1.161-12-2.639 3.477.484 6.043-.462 7-1.759A9.516 9.516 0 0 1 57 73a3.749 3.749 0 0 1 3.5 1.795A3.748 3.748 0 0 1 64 73a9.516 9.516 0 0 1 7 3.519c.957 1.3 3.523 2.244 7 1.759-.453 1.31-7.323 2.711-10.838 2.711A7.934 7.934 0 0 1 66 80.917z"/>
		<path class="cls-1" d="M32.077 151.854l-.141-.108a44.69 44.69 0 0 1-9.225-9.588l-.123-.174 9.466-.008zM87.03 151.477l.134-.109a42.419 42.419 0 0 0 8.754-9.192l.116-.176h-9z"/>
	</g>
</svg>
