<svg xmlns="http://www.w3.org/2000/svg" width="55.07" height="55.07" viewBox="0 0 55.07 55.07">
  <path id="Фигура_4_копия" data-name="Фигура 4 копия" d="M527.844,1575.468l-11.7-11.7a4.136,4.136,0,0,1,0-5.85l8.775-8.774a4.136,4.136,0,0,1,5.85,0l11.7,11.7.363-.363,11.336-11.336a4.136,4.136,0,0,1,5.849,0l8.775,8.774a4.136,4.136,0,0,1,0,5.85l-11.257,11.256-.443.443,11.7,11.7a4.137,4.137,0,0,1,0,5.85l-8.775,8.774a4.137,4.137,0,0,1-5.849,0l-11.7-11.7-.373.373-11.326,11.327a4.137,4.137,0,0,1-5.85,0l-8.775-8.774a4.137,4.137,0,0,1,0-5.85l11.034-11.034Z" transform="translate(-514.933 -1547.933)" fill="currentColor"/>
</svg>
