<svg xmlns="http://www.w3.org/2000/svg" width="33.975" height="41.015" viewBox="0 0 33.975 41.015">
  <path id="Прямоугольник_скругл._углы_4" data-name="Прямоугольник, скругл. углы 4" class="cls-1" d="M467,1975a3,3,0,1,1,0-6h24a3,3,0,1,1,0,6Zm.736-10.79a2.633,2.633,0,0,1-.625-2.589l3.1-10.3a2.611,2.611,0,0,1,.651-1.093l13.82-13.945a7.75,7.75,0,0,1,11.012,0,7.908,7.908,0,0,1,0,11.106l-13.791,13.92a2.6,2.6,0,0,1-1.141.67l-10.479,2.926a2.538,2.538,0,0,1-.693.1A2.588,2.588,0,0,1,467.736,1964.21Zm7.258-10.742-1.543,5.121,5.271-1.471,9.128-9.227-3.672-3.7Zm13.361-13.483-.5.5,3.671,3.7.5-.507a2.635,2.635,0,0,0,0-3.7,2.583,2.583,0,0,0-3.671,0Z" transform="translate(-464 -1933.984)" fill="currentColor"/>
</svg>
