<svg xmlns="http://www.w3.org/2000/svg" viewBox="0 0 61 61">
	<path fill="none" d="M.4.7h60v60H.4z"/>
	<path fill="currentColor" d="M43.5 38.2v-3.7H32.3v3.7h-3.8v-3.7H17.3v3.7h-3.7v-3.7H.4v-3.8H6v-5.6c0-3.4.7-6.7 2-9.7l3.4 1.5c-1.1 2.6-1.7 5.4-1.7 8.3v5.6h3.8v-5.6c0-3.7 1.2-7.4 3.5-10.3 2.3-3 5.5-5.1 9.1-6l.9 3.6c-2.8.7-5.3 2.4-7.1 4.7-1.8 2.3-2.7 5.1-2.7 8v5.6H21v-5.6c0-.8.1-1.6.3-2.3l3.6.9c-.1.5-.2.9-.2 1.4v5.6h3.7v-7.5h3.8v7.5H36v-5.6c0-1.1-.3-2.1-.9-3.1s-1.4-1.6-2.4-2.1c-1-.4-2.1-.6-3.2-.4s-2.1.6-2.9 1.3l-2.5-2.8c1.4-1.2 3-2 4.8-2.2 1.8-.3 3.6 0 5.3.7 1.6.7 3 1.9 4 3.5 1 1.5 1.5 3.3 1.5 5.1v5.6h3.8v-5.6h3.8v5.6H51v-5.6c0-2.9-.6-5.8-1.8-8.4s-2.9-5-5.1-6.9l2.5-2.8c2.6 2.3 4.6 5.1 6 8.2s2.1 6.5 2.1 9.9v5.6h5.6v3.8h-13v3.7l-3.8-.1zM30.4 12V8.2c3.7 0 7.4 1.2 10.3 3.5 3 2.3 5.1 5.5 6 9.1l-3.6.9c-.7-2.8-2.4-5.3-4.7-7.1-2.3-1.7-5.1-2.6-8-2.6zm-19.8-1.1c3.5-4.9 8.7-8.3 14.7-9.6C31.2 0 37.3 1 42.6 4l-1.9 3.2C36.3 4.7 31 3.9 26 4.9c-5 1.1-9.4 4-12.4 8.1l-3-2.1z" />
	<path fill="currentColor" d="M28.5 60.7V57h3.8v3.8l-3.8-.1zM51 57v-3.8h3.8V57H51zm-15 0v-3.8h3.8V57H36zm-15 0v-3.8h3.8V57H21zM6 57v-3.8h3.8V57H6zm37.5-3.8v-3.8h3.8v3.8h-3.8zm-15 0v-3.8h3.8v3.8h-3.8zm-15 0v-3.8h3.8v3.8h-3.8zM51 49.5v-3.8h3.8v3.8H51zm-15 0v-3.8h3.8v3.8H36zm-15 0v-3.8h3.8v3.8H21zm-15 0v-3.8h3.8v3.8H6zm37.5-3.8V42h3.8v3.8l-3.8-.1zm-15 0V42h3.8v3.8l-3.8-.1zm-15 0V42h3.8v3.8l-3.8-.1zM51 42v-3.8h3.8V42H51zm-15 0v-3.8h3.8V42H36zm-15 0v-3.8h3.8V42H21zM6 42v-3.8h3.8V42H6z" fill-opacity="0.2"/>
</svg>