<svg id="Layer_1" xmlns="http://www.w3.org/2000/svg" viewBox="0 0 754 1019">
  <style>
    .st2{fill:#212225}.st4{fill:none;stroke:#212225;stroke-width:5;stroke-linecap:round}
  </style>
  <g id="images_копия" transform="translate(-177.5 -290.5)">
    <path id="Фигура_1_копия_3" d="M902 1224.5V387.2c0-37.1-30.1-67.1-67.1-67.1h-75.2c-6 0-10.7 3.1-10.7 8.1v10.7c0 7.4-1.4 32.2-37.6 32.2H403c-36.2 0-37.6-24.8-37.6-32.2v-10.7c0-5-4.8-8.1-10.7-8.1h-80.6c-37.1 0-67.1 30.1-67.1 67.1v855.7c0 13.7-27 16.5-27-2.2V383c0-49.7 40.3-90 90-90h569c49.7 0 90 40.3 90 90v910.5" fill="none" stroke="#dbdde6" stroke-width="5" stroke-linecap="round"/>
    <g id="Группа_7" transform="translate(-9)">
      <g id="Группа_10">
        <path id="Фигура_80" d="M511 1017.2V992l13-9s8.2-9.7 16-29 20-16 20-16 4.7-1.3 8-2 6 3 6 3-3.5 2.3-2 6-.3 10-3 15 4.1 8.8 8 10 21.5 2.2 22 2-11 19-11 19-.2 2.3-8-4-17.7-19.9-21-19-13.4 13.1-15 26 6 26 6 26l-39-2.8zM589 864l14 5s-2.3 8.5-5 10c-1.2.6-2.9-.1-4.7-.9-2.3-1-4.6-1.9-6.3-.1-2.9 3.2-20 15-20 15l22-29z" fill="#dbdee5"/>
        <path id="Фигура_3" class="st2" d="M526.9 611.3c-3.6-2.8-3-7.6-1-9.3s6-.8 8.3 1 10.5 6.2 24.8 6.2 23.8-6.5 26.9-8.3 5-1.4 7.2 1c1 1.2 1.5 4-1 6.2-3.4 2.9-15.7 11.4-34.1 11.4-13.7.1-27.5-5.4-31.1-8.2zm20.7-18.6c-2.9 0-5.2-2.2-5.2-5.1 0-2.9 2.2-5.2 5.1-5.2h3.2c2.9 0 4.1-4.4 4.1-7.2v-28.9c0-2.9 2.3-5.2 5.2-5.2 2.8 0 5.2 2.3 5.2 5.2v30c0 6.6-1.6 16.5-13.4 16.5l-4.2-.1zm46.1-24.8c-1.5 0-2.7-1.2-2.7-2.7v-21.5c0-1.5 1.2-2.7 2.7-2.7h5c1.5 0 2.7 1.2 2.7 2.7v21.5c0 1.5-1.2 2.7-2.7 2.7h-5zm-72.3 0c-1.5 0-2.7-1.2-2.7-2.7v-21.6c0-1.5 1.2-2.7 2.7-2.7h5c1.5 0 2.7 1.2 2.7 2.7v21.6c0 1.5-1.2 2.7-2.7 2.7h-5z"/>
        <path id="Фигура_4_копия_2" d="M602.5 663c-5.7 0-5.5-11.4 0-11.4h21.7c4.5 0 13.4-4.4 13.4-13.5v-24.8c0-5.2 11.4-6 11.4 1v24.8c0 13.6-10.1 23.8-23.7 23.8l-22.8.1zm-109.7 0c-13.7 0-23.8-10.2-23.8-23.8v-24.8c0-7.1 11.4-6.2 11.4-1v24.8c0 9 8.9 13.4 13.4 13.4h21.7c5.5 0 5.7 11.4 0 11.4h-22.7zM469 528.6v-24.8c0-13.6 10.1-23.8 23.7-23.8h22.7c5.7 0 5.5 11.4 0 11.4h-21.7c-4.5 0-13.4 4.4-13.4 13.5v24.8c0 2.6-2.8 4.1-5.6 4.1s-5.7-1.6-5.7-5.2zm168.6 1v-24.8c0-9-8.9-13.4-13.4-13.4h-21.7c-5.5 0-5.7-11.4 0-11.4h22.8c13.7 0 23.8 10.2 23.8 23.8v24.8c0 3.6-2.9 5.1-5.8 5.1s-5.7-1.5-5.7-4.1z" fill="#dbdde6"/>
        <path id="Прямоугольник_1_копия_14" class="st2" d="M662.1 1306.4c0-.1 0-.2-.1-.2l-42 .9c2.8-5.9 5.3-11.9 7.5-18H410.3c-.8 10.2-1.3 17-1.3 17h-6l-11-1s2.4-17.8 5.2-36H377l4-22h19.8c.1-.3.1-.7.2-1 1.1-6 2.5-12.8 4.1-20H384l4-22h22.2c1.9-7.8 3.7-15.3 5.4-22H390l4-22h26.8l5.2-19h202v16.7c.4 1.5.7 3.6 1.1 5.9 0-1-.1-1.9-.1-2.6 56.1 6.2 106.4-15.9 108-17.9l6 19.9c4.5.5-50.1 27.8-110.5 20.3v.1c1.5 5.3 3.4 11.9 5.6 19.4v-.7c56.9 6.2 108-16 109.6-18l6 20c4.5.5-49.1 27.2-109.2 20.8 2 7 4.1 14.2 6.1 21.2 56.7 6 107.4-16.1 109-18.1l6 20c4.5.5-48.6 26.9-108.4 20.9 1.6 5.4 3.1 10.6 4.4 15.1 56.7 6 107.4-16.1 109-18.1l6 20c4.1.5-38.4 21.8-90.4 21.8-8 .2-16.1-.3-24.1-1.4zm-28.4-39.4c1.2-5.9 1.7-12 1.3-18-.1-.6-.1-1.3-.2-2H413.5c-.5 6.8-1 13.6-1.5 20h221.7zm-1.3-42c-.8-6.4-1.6-13.2-2.4-20H416.8c-.5 5.5-1 12.4-1.6 20h217.2zm-4.8-42c-.8-7.9-1.3-14.9-1.4-20H421.7l-1.7 19h-.8l-.1 1h208.5zm143 83c.1 0 .1.1 0 .1v-.1zm-11-38c.1 0 .1.1 0 .1v-.1zm-12-44c.1 0 .1.1 0 .1v-.1zm-10.6-41c.1 0 .1.1 0 .1v-.1zm-299.5-74.7zm17.4-13.2s13-8.6 20.8-13.2 17.3-11.1 17.3-11.1c4.3 3.5 8.9 6.5 13.8 9.1 7.8 3.9 13.5 3.1 22.3 3.8s27 .9 44.1.6c-25 1.4-64.8 15.4-79.1 12.8-32.5-6-56.4 11.2-56.5 11.3l17.3-13.3z"/>
      </g>
      <g id="Группа_9">
        <path id="Фигура_73" class="st4" d="M509.2 1006.6c-3 .1-13.7 8.2-1.2 10.4 12.5 2.2 62.6 2.8 87 1s53.5 5.7 60 12 0 13.8-7 9-11.7 1.3-13 4c-.8 1.5-1.4 3.2-1.8 4.8"/>
        <path id="Фигура_82" class="st4" d="M663 1305s-33.8-126.4-35.9-140.2c-1.8-11.6-1.8-21.7 0-27.4.2-.7.9-2.4 1.3-3.2"/>
        <path id="Фигура_83" class="st4" d="M715 1093s-2-.7-5.1-1.4c-4.7-1.1-12.3-2.5-16.9-.6"/>
        <path id="Фигура_77" class="st4" d="M407 1305s4.8-104.8 10-130c2.9-13.9 3.8-28.4 17-48"/>
        <path id="Фигура_74" class="st4" d="M508 1007s-9.3 3.2-12.7 4.7c-2.4 1.1-4.8 5.1-1.3 15.3 1.9 5.4-5.2 7.7-8 9s-19.3 14.9-40 25-37.9 31.4-43 58-29.3 186.7-29.3 186.7"/>
        <path id="Фигура_75" class="st4" d="M618 1043c13.6 2.4 67.8 34 79 40s28.1 10.8 35 34c6.9 23.1 12.1 51.4 19.5 74.1 7.7 24.8 31.7 114.3 31.7 114.3"/>
        <path id="Фигура_78" class="st4" d="M494.4 1028.2c4.6 14.2 30.6 15.8 79.6 13.8"/>
      </g>
      <g id="Группа_8">
        <path id="Фигура_70" class="st2" d="M520 993c-2.4-.2-4.7-.5-7-1 7.1-7.7 13.5-16.1 19-25 8-13.4 15-36 15-36l9 7s3.3.5 4 3c4.3 14.7-8.7 31.1-20 37-11.3 5.9-17.5 15-20 15zm31-93l1-27s6.3.3 9 8 3.5 8.4 7 10 1.3 3.7 1 5-3.5 8.3-3.5 8.3L551 900z"/>
        <path id="Фигура_71" class="st2" d="M444 959s.2 25.4 14 38c6.3 5.8 37.1 4.4 46-15 11.9-25.8 6.7-45 9-66 1.6-14.9 3-29.8 5-39s-2 0-2 0-10.4 43-13 50-7.2 18-22 13-17.1-34.3-14.2-57.3c4-27-8.3-57.5-16.8-61.7 12.7 29.9 7.5 72.3 7 73s-3 10.2-8.8 18-8.7 10.7-14.3 15-25.6 17.9-32-27c-1.9-13.2-2-6-2-6s-2.8 40.1 20 53 24.1 12 24.1 12z"/>
        <path id="Фигура_60" class="st4" d="M484.7 793.6s15.7-56.5 56.3-50.6c27.6 4 23.6 30 21 46s-10.5 82.4-9 109-15.7 90.4-57 106c-51.4 19.4-54.4-45.3-54.4-45.3"/>
        <g id="Фигура_61">
          <path d="M524 837c-2.3-20.4-9.1-46.8-25-46s-54.8 7.9-71 24c-16.4 16.4-37.7 48-28 102 3.7 20.8 14.3 37.9 46 43s48.6-4.5 58-29c9.4-24.5 22.3-73.6 20-94z" fill="none"/>
          <path class="st2" d="M499.7 796h-.5c-7.2.4-20.6 2.2-34.3 6.1-15.4 4.4-27 10.1-33.4 16.5-10.2 10.1-17.8 21.9-22.6 35.1-3.1 8.5-5.1 17.8-5.9 27.4-.9 11-.3 22.8 1.9 35.1.9 5.2 2.2 9.7 4 13.7 1.9 4.3 4.3 8 7.3 11.2 3.3 3.5 7.2 6.3 12 8.6 5.2 2.5 11.5 4.4 18.7 5.5 5.2.8 10 1.3 14.4 1.3 9.9 0 17.8-2.2 23.9-6.6 6-4.3 10.7-11 14.3-20.5 4.9-12.8 10.3-31.1 14.2-47.9 4.5-19.7 6.5-35.2 5.5-43.8-.6-5.3-1.4-10.4-2.5-15.1-1.2-5.4-2.7-10.1-4.3-14-1.8-4.2-3.8-7.4-6-9.5-2.2-2.2-4.3-3.1-6.7-3.1m0-5c15.4 0 22 26 24.3 46 2.3 20.4-10.6 69.5-20 94-7.7 20.3-20.7 30.3-42.8 30.3-4.6 0-9.7-.4-15.2-1.3-31.7-5.1-42.3-22.2-46-43-9.7-54 11.6-85.6 28-102 16.2-16.1 55.1-23.2 71-24h.7z"/>
        </g>
        <path id="Фигура_62" class="st4" d="M452 820s32.9 60-14 108"/>
        <path id="Фигура_63" class="st4" d="M558.5 822.6S594 836.3 617 871s12.6 85.3 1 95c-16.1 13.5-42 5-42 5"/>
        <path id="Фигура_64" class="st4" d="M562 965l-5-4"/>
        <path id="Фигура_65" class="st4" d="M584 936c-2.5 5.3-9.5 6-15 3-5.2-2.8-7 3.2-15 1-3.1-.8-5.4-5.3-5.4-5.3"/>
        <path id="Фигура_66" class="st4" d="M572 912s-9.1-11.6-18.4-9.3"/>
        <path id="Фигура_67" class="st4" d="M512 995s.5 15 0 20"/>
        <path id="Фигура_68" class="st4" d="M602 973c-6.3 4.4-18.4 16-7 43"/>
        <path id="Фигура_72" class="st2" d="M557 902s28.9-27.3 32-30 8.1 2.1 12 1 7.2-18.4 3-28-12.7-19.9-23-20c-7-.1-8 6-8 6s8.6 5.2 8 13-2.4 18.8-8 25-21 29-21 29l5 4z"/>
      </g>
    </g>
    <path id="Фигура_81" class="st4" d="M331 1307h477"/>
  </g>
</svg>
