<svg id="Layer_1" xmlns="http://www.w3.org/2000/svg" viewBox="0 0 754 1004">
  <style>
    .st1{fill:#dbdee5}.st2{fill:none;stroke:#212225;stroke-width:5;stroke-linecap:round}
  </style>
  <g id="images_копия" transform="translate(-177.5 -290.5)">
    <path id="Фигура_1_копия_3" d="M929 943V383c0-49.7-40.3-90-90-90H270c-49.7 0-90 40.3-90 90v857.7c0 18.7 27 15.9 27 2.2V387.2c0-37.1 30.1-67.1 67.1-67.1h80.6c6 0 10.7 3.1 10.7 8.1v10.7c0 7.4 1.4 32.2 37.6 32.2h308.3c36.2 0 37.6-24.8 37.6-32.2v-10.7c0-5 4.8-8.1 10.7-8.1h75.2c37.1 0 67.1 30.1 67.1 67.1v857.3c0 14.4-7.1 47.5-41 47.5s-44-28.4-44-49v-26" fill="none" stroke="#dbdde6" stroke-width="5" stroke-linecap="round"/>
    <path id="Path_1" class="st1" d="M617.7 947.3c.2-11.1-11-22.2-19.1-23.9s-21.6-1.9-26.2 0 13.4-6.2 13.4-6.2 11.7-5.8 15.5-8.5 13.3-11.2 15.2-14.2 3.1 3.5 3.1 3.5l-1.9 49.3z"/>
    <path id="Path_2" class="st1" d="M484.6 945.3c-.2-11.1 11-22.2 19.1-23.9s21.6-1.9 26.2 0-13.4-6.2-13.4-6.2-11.7-5.8-15.5-8.5-13.3-11.2-15.2-14.2-3.1 3.5-3.1 3.5l1.9 49.3z"/>
    <path id="Фигура_85" class="st2" d="M619 889.7V973c0 5.3 1.1 14.2 10 18s116.4 56.4 141 72 48 50.1 48 95v46"/>
    <path id="Фигура_86" class="st2" d="M485 887.8V972c0 9.4-3 15.3-6 18s-7.4 8 1 20c8.1 11.6 26.3 28 74 28s64.3-16.4 76-32"/>
    <path id="Фигура_87" class="st2" d="M460 1002c-4.4 1.7-99 46.2-119 57-19.4 10.5-52 28-52 95"/>
    <path id="Эллипс_3" d="M550.5 624c69.3 0 125.5 47.1 125.5 117.5.2 17-3.2 33.9-10.2 49.4-7.2.3-17.3 9.1-24.3 19.1 13.6-45.6-3.7-82.9-60.6-83-67.1-.1-72-19.5-84.4-31.8-5.1 3.5-8.8 36.2-21.6 43.8-28.1 16.9-18.6 41.6-17 49 5.3 23.8-2 22-2 22s-6.5-20.2-20.2-18c-7.3-15.8-11-33.1-10.8-50.5.1-70.4 56.3-117.5 125.6-117.5z" fill="#212225"/>
    <path id="Фигура_84" class="st2" d="M463 836c2.3 11.7 20.1 88 91 88s84.1-79.7 86-96 5.9-34.9 22-37 21 11.9 20 23-14.2 22.1-16 28-11.2 13.3-18 11"/>
    <path id="Фигура_88" class="st2" d="M707 1154v42"/>
    <path id="Фигура_88_копия" class="st2" d="M386 1154v42"/>
    <path id="Фигура_84_копия" class="st2" d="M452 853.6c-6.8 2.3-16.2-5.2-18-11.1s-15-17-16-28.2 3.9-25.2 20-23.1c10.5 1.4 16.2 7.7 19.2 15.6 1.6 4.2 1.3-4.4-.3-8.8-2.6-7.4-5.8-28.9-2-42s33.2-18.9 36-54c.5-6.7 7.2-10.4 11-3s25.9 28.4 69 26 65.5 17 74 29c10.2 14.4 3 40 3 40"/>
  </g>
</svg>
