<svg id="Layer_1" xmlns="http://www.w3.org/2000/svg" viewBox="0 0 865.7 1004">
  <style>
    .st1{fill:none;stroke:#dbdde6;stroke-width:4}.st2{fill:#dbdde6}.st4{fill:#212225}.st6{fill:none;stroke:#212225;stroke-width:5;stroke-linecap:round}
  </style>
  <g id="images_" transform="translate(-85.801 -290.5)">
    <path id="Фигура_1_копия_3" d="M922 1292V387.2c0-37.1-30.1-67.1-67.1-67.1h-75.2c-6 0-10.7 3.1-10.7 8.1v10.7c0 7.4-1.4 32.2-37.6 32.2H423c-36.2 0-37.6-24.8-37.6-32.2v-10.7c0-5-4.8-8.1-10.7-8.1h-80.6c-37.1 0-67.1 30.1-67.1 67.1v540.7c0 13.7-27 16.5-27-2.2V383c0-49.7 40.3-90 90-90h569c49.7 0 90 40.3 90 90v168" fill="none" stroke="#dbdde6" stroke-width="5" stroke-linecap="round"/>
    <g id="_4" transform="translate(0 -5)">
      <path id="Прямоугольник_скругл._углы_1_копия_2" class="st1" d="M431 956h393c22.1 0 40 17.9 40 40v172c0 22.1-17.9 40-40 40H572"/>
      <path id="Прямоугольник_скругл._углы_1_копия_3" class="st1" d="M468 1257h356c22.1 0 40 17.9 40 40"/>
      <path id="ARK_BTC_ETH" class="st2" d="M676.4 1116v-22.5h2.4v22.5h-2.4zm-69.8 0v-22.5h2.4v22.5h-2.4zm46.8-5.7c-1.4-1.6-2.1-3.9-2.1-6.9v-.9c0-1.7.3-3.3 1-4.9.6-1.3 1.5-2.5 2.8-3.2 1.2-.8 2.7-1.2 4.2-1.1 2-.1 3.9.6 5.5 1.8 1.4 1.3 2.3 3.1 2.3 5h-4.5c.1-.9-.3-1.8-.9-2.5-.7-.6-1.6-.8-2.5-.8-1-.1-1.9.4-2.5 1.3-.6 1.3-.9 2.7-.8 4.1v1.3c-.1 1.5.2 3 .8 4.3.5.9 1.5 1.4 2.6 1.3.9.1 1.7-.2 2.4-.7.6-.6.9-1.5.9-2.4h4.5c0 1.2-.4 2.4-1.1 3.5-.7 1-1.6 1.8-2.7 2.4-1.2.6-2.6.9-4 .8-2.3.1-4.4-.7-5.9-2.4zm78.1 2.2v-7.9h-6.6v7.9h-4.5v-19h4.5v7.5h6.6v-7.5h4.5v19h-4.5zm-23.1 0V1097h-5.5v-3.5h15.6v3.5h-5.6v15.4l-4.5.1zm-19.5 0v-19h12.9v3.5h-8.4v4h7.1v3.4h-7.1v4.5h8.4v3.5l-12.9.1zm-48.7 0V1097h-5.5v-3.5h15.6v3.5h-5.6v15.4l-4.5.1zm-21.1 0v-19h6.7c1.9-.1 3.8.3 5.5 1.3 1.3.9 2 2.4 1.9 3.9 0 .9-.2 1.8-.7 2.5-.5.7-1.2 1.3-2 1.5.9.2 1.7.7 2.2 1.5.5.8.8 1.7.8 2.6.1 1.6-.5 3.1-1.7 4.2-1.5 1-3.3 1.5-5.1 1.4l-7.6.1zm4.5-3.5h2.9c.7 0 1.3-.2 1.9-.6.4-.4.7-1 .7-1.6.2-1.1-.6-2.2-1.8-2.4H623.5l.1 4.6zm0-7.6h2.3c.7.1 1.5-.1 2.1-.6.4-.4.7-1 .6-1.6.1-.7-.2-1.3-.7-1.7-.7-.4-1.4-.6-2.2-.5h-2.2l.1 4.4zm-30.8 11.1l-4-7.1-1.8 2.1v5h-4.5v-19h4.5v8.4l1.6-2.4 4-6h5.6l-6.3 8.4 6.3 10.6h-5.4zm-17.2 0l-3.3-6.7h-2.4v6.7h-4.5v-19h7.3c1.9-.1 3.7.4 5.2 1.5 1.3 1 2 2.6 1.9 4.2 0 1.1-.2 2.3-.8 3.3-.6.9-1.5 1.7-2.5 2.1l3.9 7.7v.2h-4.8zm-5.8-10.2h2.8c.7.1 1.4-.2 1.9-.7.5-.5.7-1.2.6-1.9 0-.7-.2-1.4-.7-1.9-.5-.5-1.2-.8-1.9-.7h-2.8l.1 5.2zm-10.7 10.2l-1.1-3.5h-6.2l-1.1 3.5H546l6.8-19h4.2l6.9 19h-4.8zm-6.1-7.1h4l-2-6.6-2 6.6zm115.2-34.5v-6.9h-1.9v-2.5h1.9v-3.2h3.4v3.2h2.2v2.5h-2.2v6.4c0 .4.1.7.3 1 .3.2.7.4 1 .3.3 0 .7 0 1-.1v2.6c-.7.2-1.4.3-2.1.3-2.3 0-3.5-1.2-3.6-3.6zm-13 1.9c-1.2-1.2-1.9-2.9-1.8-4.6v-.3c0-1.2.2-2.4.7-3.5.5-1 1.2-1.8 2.1-2.4.9-.6 2-.8 3.1-.8 1.6-.1 3.1.5 4.2 1.7 1.1 1.3 1.6 3 1.5 4.7v1.4h-8.2c.1.8.4 1.5 1 2s1.3.8 2.1.8c1.2.1 2.4-.5 3.1-1.4l1.7 1.9c-.5.7-1.3 1.3-2.1 1.7-.9.4-1.9.6-2.9.6-1.6 0-3.2-.6-4.5-1.8zm2.6-8.2c-.5.6-.8 1.3-.8 2h4.8v-.3c0-.6-.2-1.3-.6-1.8-.4-.4-1.1-.7-1.7-.6-.7 0-1.3.3-1.7.7zm-30.6 8.8c-.8-.7-1.3-1.7-1.2-2.8-.1-1.2.5-2.4 1.5-3.1 1.3-.8 2.8-1.2 4.4-1.1h1.6v-.7c0-.5-.1-1-.5-1.4-.4-.4-.9-.6-1.4-.5-.5 0-1 .1-1.4.4-.3.3-.5.7-.5 1.1h-3.4c0-.7.2-1.5.7-2.1.5-.7 1.2-1.2 2-1.5.9-.4 1.9-.6 2.8-.5 1.4-.1 2.7.4 3.8 1.2 1 .8 1.5 2.1 1.4 3.4v5.6c0 1 .1 1.9.5 2.8v.2H634c-.2-.4-.3-.8-.3-1.2-.8.9-2 1.4-3.2 1.4-1.3 0-2.4-.4-3.3-1.2zm2.2-3.2v.2c0 .4.2.8.5 1.1.3.3.8.4 1.2.4.5 0 1-.1 1.4-.3.4-.2.7-.5 1-.9v-2.2h-1.3c-1.8-.1-2.7.5-2.8 1.7zm-50.3 3.1c-.8-1-1.2-2.2-1.1-3.5v-8.4h3.4v8.3c0 1.3.6 2 1.8 2 1 .1 1.9-.4 2.4-1.2v-9.1h3.5v12.9h-3.2l-.1-1.3c-.9 1-2.2 1.6-3.5 1.5-1.2.1-2.4-.3-3.2-1.2zm-14.2-.6c-1.2-1.3-1.8-3.1-1.7-4.9v-.2c0-1.2.2-2.4.7-3.4.5-1 1.2-1.8 2.1-2.3 1-.6 2.1-.8 3.2-.8 1.6-.1 3.1.5 4.3 1.6 1.1 1.2 1.8 2.7 1.8 4.3v.9c.1 1.7-.5 3.4-1.7 4.8-2.3 2.4-6.2 2.4-8.7 0zm2.5-7.8c-.5.9-.8 2-.7 3-.1 1 .2 2 .7 2.8.8 1.1 2.4 1.3 3.5.5.2-.1.3-.3.5-.5.5-.9.8-2 .7-3.1.1-1-.2-2-.7-2.8-.4-.6-1.2-1-2-1-.8.1-1.6.5-2 1.1zm79.7 9.4V1056h3.5v18.3h-3.5zm-6.9 0V1056h3.5v18.3h-3.5zm-22.1 0l-2.4-8.1-2.4 8.1h-2.9l-3.3-12.9h3.3l1.7 8.2 2.4-8.2h2.5l2.3 8.2 1.7-8.2h3.3l-3.3 12.9h-2.9zm-25.9 0v-12.9h3.2l.1 1.5c.5-1.1 1.6-1.8 2.9-1.8.4 0 .7.1 1.1.2v3.3c-.4-.1-.8-.1-1.2-.1-1-.1-2.1.4-2.6 1.3v8.4l-3.5.1zm-38.8 0v-6.3l-5.7-11.1h3.9l3.6 7.8 3.6-7.8h3.9L557 1068v6.3h-3.6z"/>
    </g>
    <g id="balance_">
      <g id="button">
        <path d="M726 851.5H618c-3.7 0-7.3-.7-10.7-2.2-3.3-1.4-6.2-3.4-8.7-5.9-2.5-2.5-4.5-5.5-5.9-8.7-1.4-3.4-2.2-7-2.2-10.7v-80c0-3.7.7-7.3 2.2-10.7 1.4-3.3 3.4-6.2 5.9-8.7 2.5-2.5 5.5-4.5 8.7-5.9 3.4-1.4 7-2.2 10.7-2.2h108c3.7 0 7.3.7 10.7 2.2 3.3 1.4 6.2 3.4 8.7 5.9 2.5 2.5 4.5 5.5 5.9 8.7 1.4 3.4 2.2 7 2.2 10.7v80c0 3.7-.7 7.3-2.2 10.7-1.4 3.3-3.4 6.2-5.9 8.7-2.5 2.5-5.5 4.5-8.7 5.9-3.4 1.5-7 2.2-10.7 2.2zm-192 0H426c-3.7 0-7.3-.7-10.7-2.2-3.3-1.4-6.2-3.4-8.7-5.9-2.5-2.5-4.5-5.5-5.9-8.7-1.4-3.4-2.2-7-2.2-10.7v-80c0-3.7.7-7.3 2.2-10.7 1.4-3.3 3.4-6.2 5.9-8.7 2.5-2.5 5.5-4.5 8.7-5.9 3.4-1.4 7-2.2 10.7-2.2h108c3.7 0 7.3.7 10.7 2.2 3.3 1.4 6.2 3.4 8.7 5.9 2.5 2.5 4.5 5.5 5.9 8.7 1.4 3.4 2.2 7 2.2 10.7v80c0 3.7-.7 7.3-2.2 10.7-1.4 3.3-3.4 6.2-5.9 8.7-2.5 2.5-5.5 4.5-8.7 5.9-3.4 1.5-7 2.2-10.7 2.2z" fill="none" stroke="#000" stroke-miterlimit="10"/>
        <path class="st4" d="M726 849c3.4 0 6.7-.7 9.7-2 3-1.3 5.7-3.1 7.9-5.4 2.3-2.3 4.1-5 5.4-7.9 1.3-3.1 2-6.4 2-9.7v-80c0-3.4-.7-6.7-2-9.7-1.3-3-3.1-5.7-5.4-7.9-2.3-2.3-5-4.1-7.9-5.4-3.1-1.3-6.4-2-9.7-2H618c-3.4 0-6.7.7-9.7 2-3 1.3-5.7 3.1-7.9 5.4s-4.1 5-5.4 7.9c-1.3 3.1-2 6.4-2 9.7v80c0 3.4.7 6.7 2 9.7 1.3 3 3.1 5.7 5.4 7.9 2.3 2.3 5 4.1 7.9 5.4 3.1 1.3 6.4 2 9.7 2h108m-192 0c3.4 0 6.7-.7 9.7-2 3-1.3 5.7-3.1 7.9-5.4 2.3-2.3 4.1-5 5.4-7.9 1.3-3.1 2-6.4 2-9.7v-80c0-3.4-.7-6.7-2-9.7-1.3-3-3.1-5.7-5.4-7.9s-5-4.1-7.9-5.4c-3.1-1.3-6.4-2-9.7-2H426c-3.4 0-6.7.7-9.7 2-3 1.3-5.7 3.1-7.9 5.4-2.3 2.3-4.1 5-5.4 7.9-1.3 3.1-2 6.4-2 9.7v80c0 3.4.7 6.7 2 9.7 1.3 3 3.1 5.7 5.4 7.9 2.3 2.3 5 4.1 7.9 5.4 3.1 1.3 6.4 2 9.7 2h108m192 5H618c-16.6 0-30-13.4-30-30v-80c0-16.6 13.4-30 30-30h108c16.6 0 30 13.4 30 30v80c0 16.6-13.4 30-30 30zm-192 0H426c-16.6 0-30-13.4-30-30v-80c0-16.6 13.4-30 30-30h108c16.6 0 30 13.4 30 30v80c0 16.6-13.4 30-30 30z"/>
      </g>
      <path id="icon" class="st4" d="M655 805c-1.7 0-3-1.3-3-3v-3c0-1.7 1.3-3 3-3h35c1.7 0 3 1.3 3 3v3c0 1.7-1.3 3-3 3h-35zm-177-1c-1.7 0-3-1.3-3-3v-12h-12c-1.7 0-3-1.3-3-3v-4c0-1.7 1.3-3 3-3h12v-12c0-1.7 1.3-3 3-3h4c1.7 0 3 1.3 3 3v12h12c1.7 0 3 1.3 3 3v4c0 1.7-1.3 3-3 3h-12v12c0 1.7-1.3 3-3 3h-4zm192.4-12.5l-7.1-9.3c-.3-.4-.3-.8-.1-1.2.2-.4.6-.6 1.1-.6h3.6v-3.5c.1-7.2 5.9-12.9 13.1-12.8.5 0 1 .4 1.2.9v.3c0 .4-.3.8-.7 1l-.6.3c-3.6 1.7-5.9 5.4-5.9 9.4v4.5h3.6c.4 0 .9.2 1.1.6.2.4.2.9-.1 1.2l-7.1 9.3c-.4.5-1.2.6-1.7.2-.3-.1-.4-.2-.4-.3z"/>
      <path id="_" class="st2" d="M462.9 661l1.3-2.6c1.6-2.9 2.6-6.1 2.8-9.3v-9.4h10.2v8.2c-.1 3.1-.8 6.1-2.2 8.8-1.3 2.8-3.2 5.3-5.5 7.3l-6.6-3zm299.3-7.3v-6.6c-7.6-.7-13.1-3.5-17.1-7.4l6.5-9.3c4 4.1 9.5 6.4 15.2 6.4 4.2 0 6.8-1.7 6.8-4 0-6.6-27-1.3-27-19.9 0-7.3 5.5-13.9 15.6-15.1V591h7.9v6.9c5.4.7 10.6 2.9 14.8 6.4l-6.7 8.9c-3.9-3.2-8.8-5-13.9-5-3.6 0-5.1 1.4-5.1 3.5 0 6.1 26.9 1.7 26.9 19.6 0 8.7-5.6 14.7-15.9 15.9v6.6l-8-.1zm-69.5-9.8c-3.3-4-5-9.7-5-17.1v-10c0-7.4 1.7-13.1 5-17.1 3.3-4 8-6 14.1-6s10.8 2 14.2 6.1c3.3 4 5 9.8 5 17.1v10c0 7.4-1.7 13.1-5 17.1s-8 6-14.1 6-10.8-2-14.2-6.1zm9.4-37.8c-1 1.8-1.5 4.5-1.6 8.2v14c0 4.1.5 7.1 1.5 9 .9 1.8 2.9 3 4.9 2.8 2 .1 3.9-1 4.8-2.8 1-1.8 1.6-4.7 1.6-8.7V615c0-3.9-.5-6.9-1.5-8.8-.9-1.9-2.8-3-4.9-2.9-2.1 0-3.9 1.1-4.8 2.8zM648 643.9c-3.3-4-5-9.7-5-17.1v-10c0-7.4 1.7-13.1 5-17.1s8-6 14.1-6 10.8 2 14.2 6.1c3.3 4 5 9.8 5 17.1v10c0 7.4-1.7 13.1-5 17.1-3.3 4-8 6-14.1 6-6.2 0-10.9-2-14.2-6.1zm9.3-37.8c-1 1.8-1.5 4.5-1.6 8.2v14c0 4.1.5 7.1 1.5 9 .9 1.8 2.9 3 4.9 2.8 2 .1 3.9-1 4.8-2.8 1-1.8 1.6-4.7 1.6-8.7V615c0-3.9-.5-6.9-1.5-8.8-.9-1.9-2.8-3-4.9-2.9-2 0-3.9 1.1-4.8 2.8zm-77.5 37.8c-3.3-4-5-9.7-5-17.1v-10c0-7.4 1.7-13.1 5-17.1s8-6 14.1-6 10.8 2 14.2 6.1c3.3 4 5 9.8 5 17.1v10c0 7.4-1.7 13.1-5 17.1-3.3 4-8 6-14.1 6s-10.8-2-14.2-6.1zm9.4-37.8c-1 1.8-1.5 4.5-1.6 8.2v14c0 4.1.5 7.1 1.5 9 .9 1.8 2.9 3 4.9 2.8 2 .1 3.9-1 4.8-2.8 1-1.8 1.6-4.7 1.6-8.7V615c0-3.9-.5-6.9-1.5-8.8-.9-1.9-2.8-3-4.9-2.9-2 0-3.9 1.1-4.8 2.8zm-54.1 37.8c-3.3-4-5-9.7-5-17.1v-10c0-7.4 1.7-13.1 5-17.1 3.3-4 8-6 14.1-6s10.8 2 14.2 6.1 5 9.8 5 17.1v10c0 7.4-1.7 13.1-5 17.1-3.3 4-8 6-14.1 6s-10.9-2-14.2-6.1zm9.3-37.8c-1 1.8-1.5 4.5-1.6 8.2v14c0 4.1.5 7.1 1.5 9 .9 1.8 2.9 3 4.9 2.8 2 .1 3.9-1 4.8-2.8 1-1.8 1.6-4.7 1.6-8.7V615c0-3.9-.5-6.9-1.5-8.8-.9-1.9-2.8-3-4.9-2.9-2 0-3.9 1.1-4.8 2.8zm-54.1 37.8c-3.3-4-5-9.7-5-17.1v-10c0-7.4 1.7-13.1 5-17.1 3.3-4 8-6 14.1-6s10.8 2 14.2 6.1 5 9.8 5 17.1v10c0 7.4-1.7 13.1-5 17.1-3.3 4-8 6-14.1 6s-10.8-2-14.2-6.1zm9.4-37.8c-1 1.8-1.5 4.5-1.6 8.2v14c0 4.1.5 7.1 1.5 9 .9 1.8 2.9 3 4.9 2.8 2 .1 3.9-1 4.8-2.8 1-1.8 1.6-4.7 1.6-8.7V615c0-3.9-.5-6.9-1.5-8.8-.9-1.9-2.8-3-4.9-2.9-2.1 0-3.9 1.1-4.8 2.8zm-75 37.8c-3.3-4-5-9.7-5-17.1v-10c0-7.4 1.7-13.1 5-17.1s8-6 14.1-6 10.8 2 14.2 6.1 5 9.8 5 17.1v10c0 7.4-1.7 13.1-5 17.1-3.3 4-8 6-14.1 6s-10.8-2-14.2-6.1zm9.4-37.8c-1 1.8-1.5 4.5-1.6 8.2v14c0 4.1.5 7.1 1.5 9 .9 1.8 2.9 3 4.9 2.8 2 .1 3.9-1 4.8-2.8 1-1.8 1.6-4.7 1.6-8.7V615c0-3.9-.5-6.9-1.5-8.8-.9-1.9-2.8-3-4.9-2.9-2 0-3.9 1.1-4.8 2.8zm188.7 41.7c-2.5-2.3-2.7-6.3-.3-8.8l.3-.3c2.9-2.4 7.1-2.4 10.1 0 2.5 2.3 2.7 6.3.3 8.8l-.3.3c-3 2.4-7.2 2.4-10.1 0zm-232.3 1.4v-40.5l-12.5 3.7v-9.6l24.1-8.3h1.2v54.8l-12.8-.1zm178.6-84.5v-3.6h.7c.7 0 1.4-.1 2-.4.5-.3.8-.8 1-1.3l.6-1.5-6.2-17.6h5.1l3.3 10.9 3.3-10.9h5l-7.1 20.3-.4.9c-.8 2.1-2.9 3.5-5.2 3.4-.7.1-1.4 0-2.1-.2zm-116.2-2.1l.6-1.1c.7-1.2 1.1-2.6 1.1-3.9V554h4v3.2c0 1.3-.3 2.5-.9 3.6-.5 1.2-1.3 2.2-2.3 3l-2.5-1.2zm291.8-6.7c-1.7-1.7-2.5-4-2.4-6.3v-.5c0-1.6.3-3.3 1-4.7.6-1.3 1.6-2.5 2.9-3.2 1.3-.8 2.8-1.2 4.3-1.1 2.1-.1 4.2.7 5.7 2.3 1.5 1.8 2.2 4.1 2.1 6.4v1.9H747c.1 1.1.6 2 1.4 2.8.8.7 1.8 1.1 2.9 1 1.7.1 3.2-.7 4.2-2l2.3 2.6c-.7 1-1.7 1.8-2.9 2.3-1.3.6-2.6.9-4 .8-2.2.2-4.5-.7-6.2-2.3zm3.5-11.1c-.6.8-1 1.7-1.1 2.7h6.5v-.4c0-.9-.3-1.8-.8-2.4-.6-.6-1.5-.9-2.3-.9-.9 0-1.7.4-2.3 1zM727 555.9c-1.5-1.8-2.3-4.2-2.2-6.6v-.3c-.1-2.4.7-4.7 2.2-6.5a7.7 7.7 0 0 1 5.9-2.4c1.9-.1 3.8.6 5.3 1.9 1.4 1.3 2.1 3.1 2 5h-4.4c0-.8-.3-1.6-.8-2.2-1.3-1.2-3.3-1.1-4.5.1l-.2.2c-.7 1.2-.9 2.5-.8 3.9v.5c-.1 1.4.2 2.7.8 3.9.6.8 1.5 1.3 2.5 1.2.8 0 1.5-.2 2.1-.7.5-.5.9-1.2.8-1.9h4.4c0 1.2-.3 2.3-1 3.3-.6 1-1.6 1.8-2.6 2.3-1.1.6-2.4.8-3.7.8-2.1 0-4.3-.9-5.8-2.5zm-37 .9c-1.1-.9-1.7-2.3-1.7-3.8-.1-1.7.7-3.3 2.1-4.3 1.8-1.1 3.9-1.6 6-1.5h2.2v-1c0-.7-.2-1.4-.6-1.9-.5-.5-1.2-.8-2-.7-.7 0-1.3.2-1.9.6-.5.4-.7 1-.7 1.6h-4.7c0-1 .3-2 .9-2.8.7-.9 1.6-1.6 2.7-2 1.2-.5 2.5-.8 3.9-.7 1.9-.1 3.7.5 5.2 1.6 1.3 1.2 2 2.8 1.9 4.6v7.6c-.1 1.3.2 2.6.7 3.8v.3h-4.8c-.2-.5-.4-1-.5-1.6-1.1 1.3-2.8 2-4.4 1.9-1.6-.2-3.1-.7-4.3-1.7zm3-4.4v.3c0 .5.2 1.1.6 1.4.5.4 1.1.6 1.7.6.7 0 1.3-.2 1.9-.5.5-.3 1-.7 1.3-1.2v-3h-1.8c-2.3 0-3.5.8-3.7 2.4zm-29.7 4.4c-1.1-.9-1.7-2.3-1.7-3.8-.1-1.7.7-3.3 2.1-4.3 1.8-1.1 3.9-1.6 6-1.5h2.2v-1c0-.7-.2-1.4-.6-1.9-.5-.5-1.2-.8-2-.7-.7 0-1.3.2-1.9.6-.5.4-.7 1-.7 1.6H662c0-1 .3-2 .9-2.8.7-.9 1.6-1.6 2.7-2 1.2-.5 2.5-.8 3.9-.7 1.9-.1 3.7.5 5.2 1.6 1.3 1.2 2 2.8 1.9 4.6v7.6c-.1 1.3.2 2.6.7 3.8v.3h-4.8c-.2-.5-.4-1-.5-1.6-1.1 1.3-2.8 2-4.4 1.9-1.6-.2-3.1-.7-4.3-1.7zm3-4.4v.3c0 .5.2 1.1.6 1.4.5.4 1.1.6 1.7.6.7 0 1.3-.2 1.9-.5.5-.3 1-.7 1.3-1.2v-3H670c-2.3 0-3.6.8-3.7 2.4zm-18.4 3.7l-.2 1.9h-4.2v-25h4.7v9c1.1-1.3 2.6-2 4.3-1.9 2-.1 3.9.8 5.1 2.4 1.3 2 2 4.3 1.8 6.7v.3c.1 2.3-.5 4.7-1.8 6.6-1.2 1.6-3.1 2.5-5 2.4-1.9-.2-3.6-1-4.7-2.4zm.3-10.4v6.9c.5 1.2 1.8 2 3.1 1.9 1.4.1 2.7-.9 3-2.2.3-1.1.4-2.2.3-3.3.1-1.4-.2-2.7-.8-3.9-.6-.8-1.5-1.3-2.5-1.2-1.3-.1-2.6.6-3.1 1.8zm-42.4 11c-1.1-1.3-1.6-3-1.5-4.8v-11.5h4.7v11.4c0 1.8.8 2.7 2.5 2.7 1.3.1 2.6-.5 3.3-1.7v-12.5h4.7V558h-4.4l-.1-1.8c-1.2 1.4-3 2.2-4.8 2.1-1.7.1-3.3-.5-4.4-1.6zm-18.7-.9c-1.6-1.8-2.4-4.2-2.3-6.6v-.2c0-1.6.3-3.2 1-4.7.6-1.3 1.6-2.4 2.9-3.2 1.3-.8 2.9-1.2 4.4-1.1 2.2-.1 4.3.7 5.8 2.2 1.6 1.6 2.5 3.7 2.5 5.9v1.2c.1 2.4-.7 4.7-2.3 6.5-3.3 3.3-8.6 3.3-12 0zm3.3-10.6c-.7 1.3-1 2.7-.9 4.2-.1 1.3.2 2.7.9 3.8 1.1 1.5 3.3 1.8 4.8.6l.6-.6c.7-1.3 1.1-2.7 1-4.2.1-1.3-.3-2.7-1-3.8-.6-.9-1.6-1.4-2.7-1.3-1.1-.1-2.1.4-2.7 1.3zm-44 12.3c-1.1-.5-2-1.2-2.7-2.2-.6-.9-1-1.9-1-3h4.5c0 .7.3 1.5.9 1.9.7.5 1.5.7 2.3.7.7 0 1.4-.1 2-.5.4-.3.7-.8.7-1.3 0-.6-.3-1.1-.9-1.4-.9-.4-1.8-.7-2.7-.9-4.2-.9-6.3-2.7-6.3-5.3 0-1.5.7-3 1.9-3.9 1.5-1.1 3.3-1.7 5.1-1.6 1.9-.1 3.8.5 5.4 1.6 1.3 1 2 2.5 2 4.1h-4.7c0-.6-.2-1.2-.7-1.7-.6-.5-1.3-.7-2-.7s-1.3.1-1.8.5c-.4.3-.7.8-.7 1.4 0 .5.3 1 .7 1.3.8.4 1.6.7 2.5.8 1 .2 2 .5 3 .8 2.5.9 3.7 2.5 3.7 4.7 0 1.6-.8 3-2.1 3.9-1.6 1-3.4 1.6-5.3 1.5-1.3.1-2.6-.2-3.8-.7zm-34.3 0c-1.1-.5-2-1.2-2.7-2.2-.6-.9-1-1.9-1-3h4.5c0 .7.3 1.5.9 1.9.7.5 1.5.7 2.3.7.7 0 1.4-.1 2-.5.4-.3.7-.8.7-1.3 0-.6-.3-1.1-.9-1.4-.9-.4-1.8-.7-2.7-.9-4.2-.9-6.3-2.7-6.3-5.3 0-1.5.7-3 1.9-3.9 1.5-1.1 3.3-1.7 5.1-1.6 1.9-.1 3.8.5 5.4 1.6 1.3 1 2 2.5 2 4.1h-4.7c0-.6-.2-1.2-.7-1.7-.6-.5-1.3-.7-2-.7s-1.3.1-1.8.5c-.4.3-.7.8-.7 1.4 0 .5.3 1 .7 1.3.8.4 1.6.7 2.5.8 1 .2 2 .5 3 .8 2.5.9 3.7 2.5 3.7 4.7 0 1.6-.8 3-2.1 3.9-1.6 1-3.4 1.6-5.3 1.5-1.2.1-2.6-.2-3.8-.7zm-40.6-4.2v-9.5h-2.6v-3.4h2.6v-4.3h4.7v4.3h3v3.4h-3v8.8c0 .5.1 1 .4 1.4.4.3.9.5 1.4.4.5 0 .9 0 1.4-.1v3.6c-.9.3-1.9.4-2.8.4-3.4 0-5.1-1.7-5.1-5zm245.8 4.7v-11.2c.1-.8-.2-1.6-.7-2.2-.6-.5-1.4-.7-2.2-.7-1.2-.1-2.4.6-3 1.7V558h-4.7v-17.6h4.4l.1 2c1.2-1.5 3.1-2.4 5.1-2.4 1.6-.1 3.1.5 4.2 1.6 1 1.4 1.5 3.2 1.4 4.9V558h-4.6zm-94.3 0v-17.6h4.4l.1 2.1c.7-1.5 2.3-2.4 3.9-2.4.5 0 1 .1 1.5.2l-.1 4.5c-.6-.1-1.1-.1-1.7-.1-1.8 0-2.9.6-3.5 1.8V558H623zm-88 0v-17.6h4.7V558H535zm-34.3 0v-17.6h4.7V558h-4.7zm-8.5 0v-11.1c.1-.8-.2-1.6-.7-2.2-.6-.5-1.4-.8-2.2-.7-1.2-.1-2.4.5-3 1.6V558h-4.7v-25h4.7v9.3c1.1-1.4 2.9-2.3 4.7-2.2 3.8 0 5.8 2.2 5.8 6.6V558h-4.6zm-46.7 0v-17.6h4.7V558h-4.7zm-9.1 0v-10.1h-9.5V558H422v-23.7h4.9v9.6h9.5v-9.6h4.9V558h-4.9zm244-.1V533h4.7v25l-4.7-.1zm-145-20.3c-1-1-1-2.5 0-3.5 1.1-.9 2.7-.9 3.8 0 1 1 1 2.5 0 3.5-1.1.9-2.7.9-3.8 0zm-34.3 0c-1-1-1-2.5 0-3.5 1.1-.9 2.7-.9 3.9 0 1 1 1 2.5 0 3.5-1.1.9-2.7.9-3.9 0zm-55.2 0c-1-1-1-2.5 0-3.5 1.1-.9 2.7-.9 3.9 0 1 1 1 2.5 0 3.5-1.1.9-2.7.9-3.9 0z"/>
    </g>
    <g id="человек" transform="translate(-7)">
      <path id="Фигура_18" class="st4" d="M225 1291l3.5-40.7s-.7-19.3 9.5-26.3 47.8-37.7 56-45 10.8-15.3 24-22-14.4 3.8-14.4 3.8L192 1226l-7 66 40-1z"/>
      <path id="Фигура_26" class="st4" d="M119 1137c7 2.7 40.8 2.9 54-4s23.7-7.5 31-1 9 11 9 11c-5.3-5.2-12.6-7.8-20-7-12.5 1.4-24.8 7-74 1z"/>
      <path id="Фигура_19" class="st4" d="M227 1025c4.6 27.1 24.2 46.1 17 69-5.3 17.1-5.8 25-5 30s3.2 19.8-.6 21.7-14.4 2.3-14.4 2.3-5.3-14-9-18 1-12 1-12 17.7-29.4 16-47-7.9-45.2-5-46z"/>
      <path id="Фигура_25" d="M497 1227.9c-.9-2.4-7.4-10.6-10-12.9s-3.1-12-3.1-12l-.9-9s10 .4 16-1 15-3.5 14 3 .8 19.1 5 23 9.6 8.9 9.6 8.9c-2.8 2.1-6.1 3.3-9.6 3.5h-.5c-5.7-.1-19.7-1.2-20.5-3.5zm-381.1-23.6c.1 1.7.1 2.7.1 2.7-.1-.9-.1-1.8-.1-2.7zm.1-25.4c1-7.7 7-20.9 7-20.9s21.4-.9 41-1 55.9-5.9 55.9-5.9-19.9 15.7-43.9 18.9-35.9 13.5-49 18c-9.6 3.3-11 11.9-11.1 16.3-.3-5.8-.7-19.4.1-25.4zm223-35.9c4-3.6 17.6-19.1 21-34 2.4-10.6 6.5-14.8 11.4-15.2s12.3-1.1 12.3-1.1l-4.8 7.4s-6.9 18.7-11.7 26.6c-2.9 4.8-6.4 9.3-10.3 13.3 0 0-13.6 4.1-17.5 4.1-.9 0-1.3-.3-.4-1.1zm-70-182c-2.6-9.8 2-19 2-19l19.6-4.4-.6-22.6.6-16.8-2.6-8.2 10-4s9.2 2 10 9 15.1 14.8 15.1 14.8 13 6.2 9.7 6.1-26.8.5-30.8 9.1-2.2 17.1-2 20c3.1 38.8-27.9 15.4-11 43-3.6-2.7-17.4-17.2-20-27zm82.1-33.4c-7.2-5.5-17.1-9.6-17.1-9.6s22.3 7.1 26 7 1.6 7 1.6 7l1.4 19s-6.7-19.5-11.9-23.4zM366 789c-7.4-.5-15.3-7.7-24-5-5 1.6-10.5 0-14-4l17-17s30.9 4.3 36 12c4.9 7.4-6.7 14-14.2 14h-.8z" fill="#dbdee5"/>
      <g id="Группа_3">
        <path id="Фигура_7" class="st6" d="M290.8 938.3S249.2 949.1 221 955s-61.7 15.4-80 67c-13 36.7-39.5 119.9-43 126s-5.2 9 5 15c4.7 2.8 15.3 5.7 15.3 5.7"/>
        <path id="Фигура_16" class="st6" d="M194.1 1225.2L189 1291h259s-2.6-22.9-5-66.4"/>
        <path id="Фигура_17" class="st6" d="M274 943c-11.3 22 13 57 72 57 48.7 0 36.4-47.4 24.4-54.9"/>
        <path id="Фигура_12" class="st6" d="M362.1 941.8s50.4 20 62.9 25.2 16.7 12.2 23 22 18.2 36.3 18.2 36.3"/>
        <path id="Фигура_8" class="st6" d="M125 1157.3s-11.8 18.9-9 38.7 8.4 46.3 31 44 118.4-50.7 154-78c6.9-5.3 17.8-5.7 22-11s22.4-10.8 29-12c16-2.8 24.2-27.2 25-33s3.6-11.1 7-11c1.8.1 11.1 0 19.4 0m1.4-11.9c-8.3-1.5-26.4-1.3-41.5-.9-4.6.1-8.8.3-12.2.5-3.3.1-5.8.3-7.1.3-7.3.4-12.9 3.6-18 9s-12.8 13.3-17 19-14.6 13.8-26 20c-10.9 5.9-28.7 13.7-80 24"/>
        <path id="Фигура_9" class="st6" d="M228 1025c10.1 55.6 2.8 79.2-9 93-4.8 5.6-4.1 7.2-1 10 6.8 6.2 8 18 8 18"/>
        <path id="Фигура_10" class="st6" d="M219 1131s-10.8-9.3-12-18"/>
        <path id="Фигура_11" class="st6" d="M96.5 1156.8s3.2-3.8 29.5-.8 47.5 3.8 76.3-.9"/>
        <path id="Фигура_13" class="st6" d="M541.9 1040.9s.7-10.1-12.6-10.7-90.1-6.1-100.4-6.2-16.6 6-17.7 13-17.6 159.5-19.2 177c-.9 10.2 4 8.6 13 9s88 2 88 2"/>
        <g id="Прямоугольник_скругл._углы_1">
          <path d="M432.9 1039.2c3.6-.1 6.6 2.8 6.7 6.4 0 .4 0 .7-.1 1.1l-2 18c-.6 4.2-4.1 7.4-8.3 7.5-3.6.1-6.6-2.8-6.7-6.4 0-.4 0-.7.1-1.1l2-18c.5-4.2 4.1-7.4 8.3-7.5z" fill="none"/>
          <path class="st4" d="M432.9 1044.2c-.8 0-1.6.3-2.2.9-.7.6-1.1 1.4-1.2 2.1l-2 18c-.1.6.1 1.1.4 1.4.3.3.8.5 1.3.5.8 0 1.6-.3 2.2-.9.7-.6 1.1-1.4 1.2-2.1l2-18c.1-.6-.1-1.1-.4-1.4-.2-.3-.7-.5-1.3-.5m0-5c4.1 0 7.1 3.4 6.7 7.5l-2 18c-.5 4.1-4.2 7.5-8.3 7.5-4.1 0-7.1-3.4-6.7-7.5l2-18c.5-4.1 4.2-7.5 8.3-7.5z"/>
        </g>
        <path id="Фигура_14" class="st6" d="M404.9 1222.8s-4.6-4.9-3.5-16 17.1-157.2 17.8-164.1 6.6-10.3 14-10 94.3 5.8 103 6 8 8 7.1 13.6-20.3 127.3-20.3 127.3"/>
        <path id="Фигура_15" class="st6" d="M529 1177c-8.8 5.6-18.7 9.3-29 11-7.8 1.2-20.4-2.2-15 17 3.2 11.5 6.9 11.9 9 16s.8 8.7 12 9c11.2.3 18.4 3.8 25-8s9.1-16.3 8-32c-1.7-25.7-10.9-26.9-10.9-26.9"/>
        <path id="Фигура_27" class="st6" d="M173.5 1158.3s-7.4-.2-15.5 11.7"/>
        <path id="Фигура_27_копия" class="st6" d="M183.6 975.4s-8.5-2.3-19.4 7.1"/>
        <path id="Фигура_27_копия_2" class="st6" d="M428.6 1013.1c2.3 2.8 4.1 6 5.3 9.5"/>
      </g>
      <g id="Группа_2">
        <path id="Фигура_4" class="st4" d="M385.8 789.4s21-29.9 3.2-43.4c-31.8-24.3-57.9 1.8-80 9s-52.9 2.7-64 44 7.6 78.1 38 100c7.3 5.2 12-8 12-8s-14.9-9.7-18.5-24-4.1-33.5 2.5-36 15.2 2.7 17.7 11.9 3.1 25.7 3.1 25.7l7.2 3.3 4.7-1.4s1.9-19.1 6.3-25.1-.7-26.8-2-35.4.2-22.5 10-29c14.3-9.5 20.4-3.3 33.4-1.4s17.3-2.1 17.3-2.1l9.1 11.9z"/>
        <path id="Фигура_2" class="st6" d="M297 886s-3.7.9-9-2-15.7-17.7-14-39 19.3-10 21-6 3.9 17 4 26 13 9 13 6-1.3-12.5 4-21c6.8-11 3.5-30 1-49s24.4-26.2 30-25 14.3 7.1 25 2c6.1-2.9 6.3 3.2 14 14 22.7 31.8 9.7 95.9 8 104s-7 23.7-20 26-35.5-1.1-51-13"/>
        <path id="Фигура_3" class="st6" d="M305.3 900.6s-11-7.9-14.6-14.3"/>
        <path id="Фигура_6" class="st6" d="M292 895v54m69 12v-37.4"/>
      </g>
      <path id="Фигура_28" class="st6" d="M162 1291h433"/>
    </g>
  </g>
</svg>
