<svg viewBox="0 0 1000 1000" xmlns="http://www.w3.org/2000/svg" fill-rule="evenodd" clip-rule="evenodd" stroke-linecap="round">
  <path d="M842.417 917.876V92.822c0-36.557-29.659-66.118-66.118-66.118h-74.1c-5.913 0-10.544 3.054-10.544 7.981v10.544c0 7.291-1.379 31.729-37.05 31.729H350.716c-35.671 0-37.05-24.438-37.05-31.729V34.685c0-4.927-4.73-7.981-10.544-7.981h-79.421c-36.557 0-66.118 29.659-66.118 66.118v843.185c0 13.499-26.606 16.258-26.606-2.168V88.684C130.977 39.711 170.688 0 219.661 0h560.678c48.973 0 88.684 39.711 88.684 88.684v897.183" fill="none" stroke="#dbdde6" stroke-width="4.93"/>
  <g fill-rule="nonzero">
    <path d="M448.268 713.608v-24.832l12.81-8.868s8.08-9.558 15.766-28.576 19.707-15.766 19.707-15.766 4.631-1.281 7.883-1.971c3.252-.689 5.912 2.957 5.912 2.957s-3.448 2.266-1.97 5.912-.296 9.854-2.956 14.78c-2.661 4.927 4.04 8.672 7.883 9.854 3.843 1.183 21.185 2.168 21.678 1.971.492-.197-10.839 18.722-10.839 18.722s-.197 2.266-7.883-3.941c-7.686-6.208-17.441-19.609-20.693-18.723-3.252.887-13.204 12.909-14.781 25.62-1.576 12.711 5.912 25.62 5.912 25.62l-38.429-2.759zm76.859-150.959l13.795 4.926s-2.266 8.376-4.927 9.854c-1.182.591-2.857-.098-4.631-.887-2.266-.985-4.533-1.872-6.208-.098-2.857 3.153-19.707 14.78-19.707 14.78l21.678-28.575z" fill="#dbdee5"/>
    <path d="M463.935 313.645c-3.547-2.76-2.956-7.489-.985-9.164 1.971-1.676 5.912-.789 8.179.985 2.266 1.774 10.346 6.109 24.437 6.109 14.091 0 23.452-6.405 26.506-8.178 3.055-1.774 4.927-1.38 7.095.985.985 1.182 1.478 3.942-.985 6.109-3.351 2.858-15.471 11.234-33.602 11.234-13.499.098-27.097-5.321-30.645-8.08zm20.398-18.328c-2.858 0-5.124-2.168-5.124-5.026 0-2.857 2.167-5.124 5.025-5.124h3.153c2.858 0 4.04-4.335 4.04-7.094v-28.478a5.09 5.09 0 0 1 5.124-5.124c2.759 0 5.124 2.267 5.124 5.124v29.561c0 6.504-1.576 16.259-13.204 16.259l-4.138-.098zm45.425-24.438a2.649 2.649 0 0 1-2.66-2.66v-21.186a2.649 2.649 0 0 1 2.66-2.66h4.927a2.65 2.65 0 0 1 2.661 2.66v21.186a2.65 2.65 0 0 1-2.661 2.66h-4.927zm-71.242 0a2.65 2.65 0 0 1-2.661-2.66v-21.284a2.65 2.65 0 0 1 2.661-2.661h4.927a2.65 2.65 0 0 1 2.66 2.661v21.284a2.649 2.649 0 0 1-2.66 2.66h-4.927z" fill="#212225"/>
    <path d="M538.43 364.588c-5.617 0-5.42-11.233 0-11.233h21.382c4.434 0 13.204-4.336 13.204-13.302v-24.438c0-5.124 11.233-5.912 11.233.986v24.437c0 13.401-9.952 23.452-23.353 23.452l-22.466.098zm-108.096 0c-13.5 0-23.452-10.05-23.452-23.452v-24.437c0-6.996 11.233-6.109 11.233-.985v24.437c0 8.868 8.77 13.204 13.204 13.204h21.383c5.42 0 5.617 11.233 0 11.233h-22.368zm-23.452-132.434v-24.437c0-13.401 9.952-23.452 23.354-23.452h22.368c5.616 0 5.419 11.233 0 11.233h-21.383c-4.434 0-13.204 4.336-13.204 13.303v24.437c0 2.562-2.759 4.04-5.518 4.04s-5.617-1.577-5.617-5.124zm166.134.985v-24.437c0-8.868-8.77-13.204-13.204-13.204H538.43c-5.42 0-5.617-11.233 0-11.233h22.466c13.5 0 23.452 10.051 23.452 23.452v24.437c0 3.547-2.858 5.026-5.715 5.026-2.858 0-5.617-1.479-5.617-4.041z" fill="#dbdde6"/>
    <path d="M597.158 998.578c0-.099 0-.197-.099-.197l-41.385.887a198.2 198.2 0 0 0 7.39-17.737H349.041c-.789 10.051-1.281 16.751-1.281 16.751h-5.913l-10.839-.985s2.365-17.54 5.124-35.473h-19.904l3.941-21.679h19.511c.098-.295.098-.689.197-.985 1.084-5.912 2.463-12.613 4.04-19.708h-20.792l3.942-21.678h21.875c1.872-7.686 3.646-15.076 5.321-21.678h-25.225l3.941-21.678h26.408l5.124-18.722h199.046v16.455c.394 1.478.689 3.548 1.084 5.814 0-.985-.099-1.872-.099-2.562 55.279 6.109 104.844-15.667 106.42-17.638l5.913 19.609c4.434.493-49.368 27.393-108.884 20.003v.098c1.478 5.223 3.35 11.726 5.518 19.117v-.69c56.068 6.109 106.42-15.766 107.997-17.737l5.912 19.708c4.434.492-48.382 26.802-107.603 20.496 1.971 6.897 4.04 13.992 6.011 20.889 55.871 5.913 105.829-15.864 107.406-17.835l5.912 19.708c4.434.492-47.889 26.506-106.814 20.594 1.576 5.321 3.054 10.445 4.335 14.879 55.871 5.912 105.829-15.864 107.406-17.835l5.912 19.707c4.04.493-37.838 21.481-89.078 21.481-7.883.198-15.864-.295-23.747-1.379zm-27.985-38.824c1.183-5.813 1.675-11.824 1.281-17.737-.098-.591-.098-1.28-.197-1.97H352.194c-.493 6.7-.985 13.401-1.478 19.707h218.457zm-1.281-41.385c-.788-6.307-1.576-13.007-2.365-19.708H355.446c-.493 5.42-.986 12.219-1.577 19.708h214.023zm-4.73-41.386c-.788-7.785-1.281-14.682-1.379-19.708H360.274l-1.675 18.722h-.788l-.099.986h205.45zm140.909 81.786c.098 0 .098.098 0 .098v-.098zm-10.839-37.444c.098 0 .098.098 0 .098v-.098zm-11.825-43.357c.099 0 .099.099 0 .099v-.099zm-10.445-40.4c.099 0 .099.098 0 .098v-.098zm-277.974-86.615s12.81-8.474 20.496-13.006c7.686-4.533 17.047-10.938 17.047-10.938 4.237 3.449 8.77 6.405 13.598 8.967 7.686 3.843 13.303 3.054 21.974 3.744 8.671.69 26.605.887 43.455.591-24.634 1.38-63.852 15.175-77.943 12.613-32.025-5.912-55.575 11.036-55.674 11.135l17.047-13.106z" fill="#212225"/>
  </g>
  <g fill="none" stroke="#212225" stroke-width="4.93">
    <path d="M446.494 703.163c-2.956.098-13.499 8.08-1.182 10.248 12.317 2.168 61.684 2.759 85.727.985 24.043-1.774 52.718 5.617 59.123 11.825 6.405 6.207 0 13.598-6.898 8.868s-11.529 1.281-12.81 3.941c-.788 1.479-1.379 3.154-1.773 4.73M598.045 997.198s-33.306-124.551-35.375-138.149c-1.774-11.43-1.774-21.383 0-26.999.197-.69.887-2.365 1.281-3.153M649.284 788.299s-1.971-.69-5.025-1.379c-4.632-1.084-12.12-2.464-16.653-.592M345.789 997.198s4.73-103.267 9.854-128.098c2.857-13.697 3.744-27.985 16.751-47.298"/>
    <path d="M445.312 703.557s-9.164 3.153-12.515 4.631c-2.364 1.084-4.729 5.026-1.28 15.076 1.872 5.321-5.124 7.588-7.883 8.869-2.76 1.281-19.018 14.682-39.415 24.634-20.398 9.952-37.346 30.941-42.372 57.152-5.025 26.211-28.871 183.969-28.871 183.969M553.703 739.03c13.401 2.365 66.808 33.503 77.844 39.415 11.037 5.913 27.689 10.642 34.489 33.503 6.799 22.762 11.923 50.648 19.214 73.016 7.588 24.438 31.237 112.629 31.237 112.629M431.911 724.447c4.532 13.992 30.152 15.569 78.435 13.598"/>
  </g>
  <path d="M457.136 689.762c-2.365-.197-4.631-.493-6.897-.986a162.31 162.31 0 0 0 18.722-24.634c7.883-13.204 14.78-35.473 14.78-35.473l8.869 6.897s3.251.493 3.941 2.956c4.237 14.485-8.573 30.645-19.707 36.459-11.135 5.814-17.244 14.781-19.708 14.781zm30.547-91.64l.985-26.605s6.208.295 8.869 7.883c2.66 7.587 3.448 8.277 6.897 9.854 3.449 1.576 1.281 3.646.986 4.926-.296 1.281-3.449 8.179-3.449 8.179l-14.288-4.237zM382.248 656.259s.197 25.029 13.795 37.444c6.208 5.715 36.557 4.336 45.327-14.78 11.726-25.423 6.602-44.342 8.869-65.035 1.576-14.682 2.956-29.364 4.926-38.43 1.971-9.065-1.97 0-1.97 0s-10.248 42.371-12.81 49.269c-2.562 6.898-7.095 17.737-21.678 12.81-14.584-4.927-16.85-33.798-13.993-56.462 3.942-26.605-8.178-56.659-16.554-60.798 12.514 29.463 7.39 71.243 6.898 71.933-.493.69-2.956 10.051-8.672 17.736-5.715 7.686-8.572 10.544-14.09 14.781-5.519 4.237-25.226 17.638-31.532-26.605-1.873-13.007-1.971-5.912-1.971-5.912s-2.759 39.513 19.707 52.225c22.467 12.711 23.748 11.824 23.748 11.824z" fill="#212225" fill-rule="nonzero"/>
  <path d="M422.353 493.278s15.47-55.673 55.476-49.86c27.196 3.942 23.255 29.561 20.693 45.327-2.562 15.766-10.346 81.195-8.868 107.406 1.478 26.211-15.471 89.078-56.167 104.45-50.648 19.116-53.604-44.638-53.604-44.638" fill="none" stroke="#212225" stroke-width="4.93"/>
  <path d="M461.078 536.043c-2.267-20.101-8.967-46.115-24.635-45.327-15.667.789-53.998 7.785-69.961 23.649-16.16 16.16-37.149 47.298-27.591 100.508 3.646 20.496 14.091 37.346 45.328 42.371 31.236 5.026 47.889-4.434 57.151-28.575 9.263-24.142 21.974-72.524 19.708-92.626z" fill="none"/>
  <path d="M437.133 495.643h-.493c-7.094.394-20.298 2.168-33.798 6.011-15.175 4.336-26.605 9.952-32.911 16.259-10.051 9.952-17.54 21.579-22.27 34.586-3.054 8.376-5.025 17.54-5.814 26.999-.886 10.84-.295 22.467 1.873 34.587.887 5.124 2.168 9.558 3.941 13.5 1.872 4.237 4.237 7.883 7.193 11.036 3.252 3.449 7.095 6.208 11.825 8.474 5.124 2.464 11.332 4.336 18.426 5.42 5.124.788 9.854 1.281 14.19 1.281 9.755 0 17.539-2.168 23.55-6.504 5.912-4.237 10.544-10.839 14.091-20.2 4.828-12.613 10.149-30.645 13.992-47.199 4.435-19.412 6.405-34.686 5.42-43.16-.591-5.222-1.38-10.248-2.464-14.879-1.182-5.321-2.66-9.952-4.237-13.795-1.773-4.139-3.744-7.292-5.912-9.361-2.168-2.168-4.237-3.055-6.602-3.055m0-4.927c15.175 0 21.678 25.62 23.945 45.327 2.266 20.102-10.445 68.484-19.708 92.626-7.587 20.003-20.397 29.856-42.174 29.856-4.532 0-9.558-.394-14.977-1.281-31.237-5.025-41.682-21.875-45.328-42.371-9.558-53.21 11.431-84.348 27.591-100.508 15.963-15.864 54.294-22.86 69.961-23.649h.69z" fill="#212225" fill-rule="nonzero"/>
  <path d="M390.131 519.292s32.419 59.123-13.795 106.42M495.073 521.854s34.981 13.5 57.645 47.692c22.663 34.193 12.415 84.053.985 93.611-15.865 13.302-41.386 4.927-41.386 4.927M498.522 662.171l-4.927-3.941" fill="none" stroke="#212225" stroke-width="4.93"/>
  <path d="M520.2 633.595c-2.463 5.223-9.361 5.913-14.78 2.957-5.124-2.759-6.898 3.153-14.781.985-3.055-.788-5.321-5.223-5.321-5.223M508.376 609.946s-8.967-11.43-18.131-9.164M449.253 691.733s.493 14.78 0 19.707M537.937 670.054c-6.208 4.336-18.131 15.766-6.898 42.371" fill="none" stroke="#212225" stroke-width="4.93"/>
  <path d="M493.595 600.093s28.477-26.901 31.532-29.561c3.055-2.661 7.982 2.069 11.825.985 3.842-1.084 7.094-18.131 2.956-27.591-4.139-9.459-12.515-19.609-22.664-19.707-6.898-.099-7.883 5.912-7.883 5.912s8.474 5.124 7.883 12.81c-.591 7.686-2.365 18.525-7.883 24.634-5.518 6.11-20.693 28.576-20.693 28.576l4.927 3.942z" fill="#212225" fill-rule="nonzero"/>
  <path d="M279.769 999.169h470.023" fill="none" stroke="#212225" stroke-width="4.93"/>
</svg>
