<svg viewBox="0 0 1000 1000" xmlns="http://www.w3.org/2000/svg" fill-rule="evenodd" clip-rule="evenodd" stroke-linecap="round">
  <path d="M826.55 390.5V93.7c0-37.1-30.1-67.1-67.1-67.1h-75.2c-6 0-10.7 3.1-10.7 8.1v10.7c0 7.4-1.4 32.2-37.6 32.2h-308.4c-36.2 0-37.6-24.8-37.6-32.2V34.7c0-5-4.8-8.1-10.7-8.1h-80.6c-37.1 0-67.1 30.1-67.1 67.1v540.7c0 13.7-27 16.5-27-2.2V89.5c0-49.7 40.3-90 90-90h569c49.7 0 90 40.3 90 90v370M173.55 1000.5v-252c0-22.1 17.9-40 40-40h219" fill="none" stroke="#dbdde6" stroke-width="5"/>
  <g fill-rule="nonzero">
    <path d="M389.65 355.5h178.9c11 0 20 8.9 20 19.9v58.1c0 11-9 20-20 20h-109.5s-7.8-10.9-12.6-17.3-13.1-10-8.1 4.6c0 .1 2.8 3.9 2.9 4.3 2.7 7.8 2.3 8.4 2.3 8.4h-54c-11 0-20-8.9-20-20v-58c0-11.1 9-20 20.1-20z" fill="#212225"/>
    <path d="M465.45 407.2c0-4.4 2.5-7.1 6-7.1 1.6 0 3.2.8 4.2 2.1v-6.9h3.6V414h-3.6v-1.7c-1 1.3-2.5 2.1-4.2 2.1-3.4-.1-6-2.7-6-7.2zm3.7 0c0 2.3 1.4 3.9 3.4 3.9 1.2 0 2.4-.6 3.1-1.5v-4.8c-.7-1-1.9-1.5-3.1-1.5-2-.1-3.4 1.5-3.4 3.9zm-35.4-.1c-.1-3.8 2.9-7 6.7-7.1h.3c4 0 6.8 3 6.8 7.5v.8h-10.1c.3 1.9 2 3.3 3.9 3.1 1.3 0 2.6-.5 3.6-1.3l1.6 2.3c-1.6 1.3-3.5 1.9-5.6 1.9-3.8.2-7-2.7-7.2-6.5v-.7zm3.7-1.2h6.7c-.1-1.7-1.5-3.1-3.3-3h-.1c-1.7-.1-3.2 1.2-3.3 3zm-20.8 5.4l2.2-3c1.5 1.6 3.7 2.5 5.9 2.5s3.2-1 3.2-2.1c0-3.3-10.8-1-10.8-8.1 0-3.1 2.7-5.7 7.1-5.7 2.7-.1 5.3.8 7.3 2.6l-2.2 2.9c-1.5-1.3-3.4-2.1-5.4-2.1-1.7 0-2.7.8-2.7 1.9 0 3 10.7 1 10.7 8 0 3.4-2.4 6-7.5 6-2.8.2-5.7-.9-7.8-2.9zm121.6 2.6l-5.7-7.5-1.5 1.7v5.8h-4v-18.7h4v8.4l6.6-8.4h4.9l-7.4 8.8 7.9 9.9h-4.8zm-18.5 0l-3.7-6.6h-2.9v6.6h-4v-18.7h8.7c3.9 0 6.3 2.6 6.3 6 .2 2.6-1.6 4.9-4.1 5.6l4.2 7.1h-4.5zm-6.6-10.1h4.2c1.4.1 2.6-.9 2.8-2.3.2-1.4-.9-2.6-2.3-2.8h-4.7v5.1zm-10.3 10.1l-1.1-3.2h-8l-1.2 3.2h-4.5l7.2-18.7h5l7.2 18.7h-4.6zm-8-6.7h5.8l-2.9-8-2.9 8zm-35.6 6.7v-8.2c0-1.9-1-2.5-2.5-2.5-1.2 0-2.4.6-3.1 1.6v9.1h-3.6v-13.5h3.6v1.8c1.2-1.4 2.9-2.1 4.7-2.1 3 0 4.4 1.7 4.4 4.3v9.6l-3.5-.1z" fill="#fff"/>
  </g>
  <g fill-rule="nonzero">
    <path d="M272.73 355.3h60.8c11 0 20 9 20 20v58.2c0 11-9 20-20 20h-60.8c-11 0-20-9-20-20v-58.2c0-11 9-20 20-20z"/>
    <path d="M272.73 357.3h60.8c9.9 0 18 8.1 18 18v58.2c0 9.9-8.1 18-18 18h-60.8c-9.9 0-18-8.1-18-18v-58.2c0-9.9 8.1-18 18-18zM665.55 453.5h-36c-11 0-20-9-20-20v-58c0-11 9-20 20-20h61c11 0 20 9 20 20v39" stroke="#dbdde6" stroke-width="4" stroke-linecap="butt"/>
    <path d="M317.85 421.2v-3.5h3.5v3.5h-3.5zm-5.6 0v-3.5h3.5v3.5h-3.5zm-6.3 0v-15.4h9.8v4.2h2.1v-4.2h3.5v9.1h-9.1v-2.8h-2.1v9.1h-4.2zm-19.6 0v-15.4h15.4v15.4h-15.4zm3.5-3.5h8.4v-8.4h-8.4v8.4zm358.4 2.8c-2.6 0-4.7-2.1-4.7-4.6v-10c-.1-.8.5-1.5 1.2-1.5h3.5c.8-.1 1.5.4 1.6 1.2v5.8c0 1.7 1.4 3.1 3.1 3.1h17.2c1.7 0 3.1-1.4 3.1-3.1V406c-.1-.8.5-1.5 1.2-1.5h3.5c.9 0 1.6.7 1.6 1.5v10c0 2.6-2.1 4.7-4.7 4.6h-26.6v-.1zm-356.3-4.9v-4.2h4.2v4.2h-4.2zm368.2-9.5l-2.3-2.3-6-6.1c-.6-.6-.6-1.7 0-2.3l2.3-2.3c.6-.6 1.6-.6 2.3 0l4.9 5 10.9-11.1c.6-.6 1.6-.6 2.3 0l2.3 2.3c.6.6.6 1.7 0 2.3l-12.1 12.2-2.3 2.3c-.7.6-1.7.6-2.3 0zm-354.2-4.5v-15.4h15.4v15.4h-15.4zm3.5-3.5h8.4v-8.4h-8.4v8.4zm-23.1 3.5v-15.4h15.4v15.4h-15.4zm3.5-3.5h8.4v-8.4h-8.4v8.4zm21.7-2.1v-4.2h4.2v4.2h-4.2zm-19.6 0v-4.2h4.2v4.2h-4.2z" fill="#dbdde6"/>
  </g>
  <g fill-rule="nonzero">
    <path d="M599.55 999.5l4-14 8-2s19.7-5.1 15-1.6c-13.2 9.9-13 17.6-13 17.6h-14zm166-36c-12.1-9-27.3-8.6-27.3-8.6s10-2.4 15.3-3.4c5.3-1 18-7 18-7s5.1 8.7 12 21 7 32 7 32l-16 1s3.1-26-9-35zm-174.4 8.4l2.1-5.5 18.3 1.1 11.8-2.7v-6.9l3.2-3.3s37.9-5.4 45-6c7.1-.6 59-12 59-12l6-8 6-9s14-31 21-49 23-79 23-79-1.3 40.2-7 80c-4.8 33.5-20.8 47.7-28 63-7.2 15.3-20.4 15.3-39 20-18.6 4.7-77 7-77 7s4.8 7.2-1 11-11 3.8-17 3c-6-.8-15.2-.1-20 3-.5.4-1.2.6-1.8.6-3.4-.1-4.6-7.3-4.6-7.3zm78.4-122.4c.1-8-4.8-17.7-19-21-13.7-3.2-30-25-30-25s7.9 5.7 24 11c6 2 13.7 2.3 22.3-2.4 8.3-4.5 9.1-17 9.2-17.9l-2.5 48.3s-2.5 9.4-3.6 9.4c-.2 0-.4-.7-.4-2.4zm134-181c-6.3-6.9-19-8-19-8 4.6-.5 8.9-2.6 12-6 5-5.6-9.8-9.9-19.3-8.9s1.3-3.1 1.3-3.1l29-3s25.6 20.8 29 48c3.4 27.2-17.7 30.8-18.3 33.2-.3-36-8.4-45.3-14.7-52.2zM611.65 725.3s-10.4 17.3-18.8 20.5c-8.4 3.2-49.4 10-60.3 9.6-10.9-.4-13-9.2-18-20s-11.7-37.6-13-42c-1.3-4.4 1.4-8.3 9-11 7.6-2.7 22.1-11.8 35.4-17.3 13.3-5.5-61.7 13.7-61.7 13.7s13.6 56.4 20.3 65.5c6.7 9.1 13.3 15.9 28 15.5 14.7-.4 70.9-9.7 70.9-9.7l5-13.4 3.2-11.4z" fill="#212225"/>
    <path d="M479.95 976.4c-4.7-.7-14.3-1.1-17.5-2.3-3.2-1.2-13-5.8-15.8-7.2-2.8-1.4-11-7.5-12.1-8.4-1.1-.9-2-8-2-8s6.3 7.4 15 10c7 2.1 15.3 2.2 20 1 4.7-1.2 6.8 1.4 9 3s14.3 9.6 14.3 9.6-5 2.4-9.4 2.4c-.5 0-1-.1-1.5-.1zm33.1-13.8c1.2-.8 5-4 14.5-6.1 9.5-2.1 45.5-7.5 51-12s-3.5-27-5-32 5.8-1.2 5.8-1.2l7.6 42-3.4 2.2s-64.6 7.2-70.1 7.2c-.3-.1-.4-.1-.4-.1zm-49.1-433.3h4.9l29.7 113.2-18 2-16.6-115.2zm279.6 68.2c-2.4-11.1-7.4-27.5-15-29s-9.9.4-18 5-7 32-7 32-8.2-15.9-14-23c-5.5-6.7-20-18-20-18s25.8.6 31 0c5.2-.6 22.7-5.9 24-6 1.3-.1 12-4 12-4l10-7 8 4 35 69s-3.9 3-14.9 3.8c-5.9.4-44.6 14.8-48.1 17.2 19.9-22 18.1-38.9 17-44zm-301-79l-6-7-4-10-5-6 1-8 8-7 5 5s4.5 7.9 5 9c.5 1.1.3 9.3 1 14 .7 4.7 8 12.7 8 12.7l-13-2.7zm9-40l-3.6-1.2-6.4-27.8-2-14s8.7 24.6 14 31c5.3 6.4 6 19 6 19l-8-7z" fill="#dbdee5"/>
  </g>
  <path d="M834.05 879c-12.7 0-25.1-4.3-35-12.3.4-2 .5-6-1.3-13.8-1-4.6-2.3-8.5-2.3-8.5.2-.7 18.3-77.4 19.7-83.7 2.1-8.8 3.6-17.8 4.5-26.8.8-7.3 1.1-14.7.9-22-.3-10.3-1.4-20.5-3.2-30.6-.5-2.9-.9-5.5-1.2-7.6-.2-2.1-1.7-7.4-7.6-20.4-3.5-7.8-7-14.8-7-14.8.1-.1 6-5.1 7-9 .4-1.8 0-3.7-1.2-5.1-1.5-1.9-3.8-2.9-6.2-2.9h-.6c-2 .1-4.6.6-7.4 1-3.6.7-7.2 1.1-10.8 1.3-.9 0-1.9-.1-2.8-.3-4.7-1.2-9.2-3.3-13-6.3-4-3.1-7.5-6.7-10.4-10.8-5.8-8-9.8-17.2-11.5-26.9-.6-3.9-1.7-7.7-3.3-11.4-1.2-2.7-2.6-5.3-4.3-7.8-1.5-2.2-3.3-4.2-5.4-5.9.1-.1 7.6-12.2 9-17 .7-2.6.3-5.4-1-7.7-.8-1.6-2.2-2.8-4-3.3-.3-.1-.7-.1-1-.1-3.1 0-7.2 3-11 8.1-3.5 4.7-7.5 5-8.7 5h-.3c-3.3-1-6.4-2.7-9-5-2.5-2.1-4.5-4.7-5.9-7.7-1.7-3.9-2.4-8.1-2-12.4.8-10 2.5-19.9 5.2-29.6 1.1-4.3 1.9-7.5 1.8-9.4 0-1.3 0-2.6.1-3.9.2-3.8.3-7.3-1.2-10.3-1.1-2.1 0-6.1 1.1-10 1-3.6 1.9-6.9 1.2-8.7-.3-.7-1-3.1.9-6.6 1.7-3.1 4.9-6 9.5-8.5 5.8-3.2 13.8-5.8 23.7-7.7 5.9-1.2 11.9-1.8 17.9-1.8 5.8 0 11.6.6 17.2 1.9 5.2 1.2 10.2 2.9 15 5.2 8.9 4.3 17 10.3 23.7 17.6 2.8 3 5.2 6.3 7.2 9.8 2.2 3.9 4.2 8 5.7 12.2 3.4 9.4 5.5 19.2 6.3 29.1-25.3 2.1-44.1 24.3-42.1 49.6.8 9.7 4.7 18.9 11 26.3 2.3 2.7 4.9 5.1 7.8 7.2-1.3 4.8-2.1 9.8-2.3 14.8-.2 4.8 0 9.6.7 14.4.7 4.7 1.8 9.3 3.2 13.8 1.4 4.5 3.1 8.9 5.1 13.2 7.8 17.1 19.2 32.1 28.3 44.1 2.6 3.4 5 6.6 7 9.5 11.4 15.7 21.4 32.5 29.7 50.1 6.5 13.8 11.3 28.3 14.4 43.2 2.4 11.8 3 23.9 1.7 35.9-1.1 9.8-3.9 19.4-8.3 28.2-2.8 5.5-6.4 10.6-10.5 15.1-3.9 4.2-8.4 7.9-13.3 11-9.6 5.9-20.4 9-31.4 9z" fill="#212225" fill-rule="nonzero"/>
  <circle cx="838.55" cy="539.5" r="39" fill="#212225"/>
  <path d="M703.55 565.5c-12.3 3.2-40.6 2-53-3-12.4-5-11.2-17.9-12-30-.8-13.2 9.8-54 42-79 8.7-6.7 21.8-14.6 26.2-14.7 4.4-.1-8.7 16.4-2.2 25.7 6.5 9.3-6.8 35.1-4 52s16.7 23.4 21 16c4.3-7.4 14.3-13.8 19-5 4.7 8.8-1.3 21.5-6 26s-13.1 9.9-17 4M770.55 945.5s16.8 20.6 19.6 45.8c.3 2.4.4 4.8.4 7.2v-1.4M602.55 986.5l-1 9" fill="none" stroke="#212225" stroke-width="5"/>
  <path d="M671.35 566.8c9.8 3.3 28.4 21.1 31.2 36.7 2.8 15.6-1.7 35.2-3 41-.7 3.2-16.6 21.1-16.6 21.1s-7.6 9.9-13.6 13.2" fill="none" stroke="#212225" stroke-width="5"/>
  <path d="M625.55 979.5c-11.7 4-25.7 10.8-33 4-4.3-4-2.9-9.8-.8-16.8m26.7-74.4c6.3-9.2 9.1-25.3 10.1-33.8 2.8-25.4-9.4-46.3-11-52-1.6-5.7-24.2-21.8-12-64 6-20.6 24.5-40.2 38.7-58.1.8-1 1.5-2 2.3-2.9m29.8-42.5c6.8-9.2 17.5-15.9 25.7-17.4M613.75 800.4c10.9 14.2 41.4 19 53.8 4.1M736.55 952.5c12.2.7 39.9-6.6 41-25 1.1-18.4 10.5-40 17-51s2.6-23 1-30 29.4-107.6 25-148c-4.4-40.4-19-55-19-55" fill="none" stroke="#212225" stroke-width="5"/>
  <path d="M697.95 662.1s12.4-17.1 29.7-23.3c18.1-6.1 55.3-16.7 65.9-18.3 10.6-1.6 19.7-.4 18 9-1.7 9.4-14.6 15-27 14s-61 8-61 8-35.9 13.9-45 21c-9.1 7.1-47.6 28.6-52.7 35M686.65 628.8c-17.7 4.5-34.6 11.9-50.1 21.7-24.7 16-51.8 31.1-79 34-2.2.2-10 2.2-11-7s-2-12-2-12M484.55 681.5s12.1 55.2 21 66c8.9 10.8 13.4 11.7 30 11 16.6-.7 68-10 68-10" fill="none" stroke="#212225" stroke-width="5"/>
  <g fill-rule="nonzero">
    <path d="M477.55 641.5c7.5.3 46.3-7.3 54-13 7.7-5.7 12.8-.3 18 5 5.2 5.3 8.6 16.2 8 23-.6 6.8-8.3 9.2-17 10-8.7.8-52.6 13.5-59 17-6.4 3.5-13.1-.2-13-9 .1-8.8.8-17.1-1-22-1.8-4.9 2.5-11.3 10-11z"/>
    <path d="M537.95 631c-.9 0-2.1.5-3.4 1.5-2.3 1.7-6.1 3.4-11.9 5.2-4.5 1.4-10.2 2.9-16.5 4.3-5.6 1.2-11.4 2.4-16.5 3.2-3.7.6-8.7 1.3-11.7 1.3h-.9c-2.7 0-3.9 1.4-4.3 2-.5.8-.7 1.6-.5 2.2 1.8 4.7 1.6 10.9 1.4 18.1 0 1.8-.1 3.7-.1 5.6 0 2 .5 3.6 1.4 4.5.5.5 1.1.8 1.9.8.7 0 1.5-.2 2.4-.7.7-.4 2.7-1.5 11.5-4.4 5.1-1.7 11.5-3.6 18.1-5.6 11.8-3.4 26.2-7.2 31.3-7.7 4.3-.4 7.5-1.1 9.7-2.2.9-.5 1.6-1 2.1-1.6.4-.5.6-1 .6-1.7.2-2.6-.3-6.3-1.6-10-1.3-3.8-3.1-7.1-5-9l-.3-.3c-2.7-2.6-5.5-5.5-7.7-5.5m0-5c4.4 0 8 3.8 11.6 7.5 5.2 5.3 8.6 16.2 8 23-.6 6.8-8.3 9.2-17 10-8.7.8-52.6 13.5-59 17-1.6.9-3.2 1.3-4.8 1.3-4.6 0-8.3-3.7-8.2-10.3.1-8.8.8-17.1-1-22-1.8-4.7 2.4-11 9.5-11h.9c8.4 0 46-7.4 53.6-13 2.3-1.7 4.4-2.5 6.4-2.5z" fill="#212225"/>
  </g>
  <path d="M555.55 684.5s-10.3-.7-14 13M473.35 646.6s6.3 8.2 19 1.9M527.55 630.5s-31.5-109.5-44-133-36.3-61.4-40-65c-3.7-3.6-8.1-.9-5 7 3.1 7.9 8.9 27.3 10 30 1.1 2.7-2 7.3-5 5s-9.9-6.7-11-7c-3.7-1-4.3 5.5 1 9s10.4 12.1 11 18c.6 5.9 4.1 27.1 23 35M461.75 527c6.1 14.4 19.8 114.5 19.8 114.5" fill="none" stroke="#212225" stroke-width="5"/>
  <path d="M434.55 482.5s-8.9 2.6-9 8c-.1 5.4 9.2 7 11 17 1.5 8.5 10.8 11.9 19.2 14.4M445.05 475.3s8.8 6.6 12.6 12.3M786.55 784.5s-18.2 91.1-49 142c-3.2 5.3-.8 9.4-25 15-28.1 6.5-81.2 14.7-88 14M716.55 683.5c-39.7 47-40 149.1-46 164-5.5 13.7-7.9 13-9 17-1.1 4 1.4 11.9 1 13-.4 1.1-27.9 9.6-51 18M662.55 877.5s8.9 2.3 14 2" fill="none" stroke="#212225" stroke-width="5"/>
  <g fill-rule="nonzero">
    <path d="M583.65 958.5c.6-7.4-5.3-46.5-10.7-54.5-5.4-8 .2-12.8 5.8-17.8s16.6-7.9 23.3-7c6.7.9 8.9 8.7 9.3 17.4.4 8.7 11.2 53.1 14.4 59.7 3.2 6.6-.8 13-9.6 12.6-8.8-.4-17.1-1.6-22 0-4.9 1.6-11.2-2.9-10.5-10.4z"/>
    <path d="M592.15 964.3c.2 0 .3 0 .5-.1 2.3-.7 5-1.1 8.7-1.1 2.9 0 6.1.2 9.5.4 1.8.1 3.7.3 5.6.3h.6c2.1 0 3.8-.6 4.4-1.7.6-.9.5-2.3-.2-3.7-.3-.7-1.4-2.8-3.9-11.7-1.4-5.1-3.1-11.6-4.8-18.3-2.9-11.9-6.1-26.5-6.3-31.6-.2-4.3-.8-7.6-1.8-9.8-.4-1-.9-1.7-1.5-2.2-.5-.4-1-.6-1.7-.7-.6-.1-1.3-.1-2-.1-5.9 0-13.7 2.6-17.3 5.9l-.3.3c-2.3 2.1-4.7 4.2-5.6 6.1-.3.7-.4 1.2-.4 1.8.1.9.5 1.9 1.3 3 1.6 2.4 3.1 6.4 4.7 12.4 1.2 4.7 2.5 10.6 3.6 17 1.8 10.2 3.5 23.4 3.1 28.3-.1 1.7.3 3.2 1.3 4.2.9.9 1.7 1.3 2.5 1.3m0 5c-4.4 0-9.1-4.3-8.5-10.8.6-7.4-5.3-46.5-10.7-54.5-5.4-8 .3-12.8 5.8-17.8 4.8-4.3 13.9-7.2 20.7-7.2.9 0 1.8.1 2.7.2 6.7.9 8.9 8.7 9.3 17.4.4 8.8 11.2 53.1 14.4 59.7 3.1 6.3-.5 12.6-8.7 12.6h-.8c-5.4-.3-10.5-.8-14.9-.8-2.8 0-5.2.2-7.1.8-.8.3-1.5.4-2.2.4z" fill="#212225"/>
  </g>
  <path d="M577.55 909.5c1 .9-28.5 17.6-60.8 23.8-7.1 1.4-15.2-3.1-26.1-2.6-10.9.5-14.2 4.1-18.8 5-4.6.9-14 .6-15.4 2.6-2.1 2.7 2 4.4 7.5 5.3 5.5.9 8.7-.6 12.3 1.4 1.7.9-6.4 8.9-13.7 9.6-7.3.7-18.6-1.4-22-3.4-3.4-2-5.9-4.2-7.9-2.2-3.9 3.9-.1 6.7 6 11.4s22.9 11.3 27 14c4.1 2.7 21.4 1.5 27.1-1.7 5.7-3.2 14.5-9.7 19-10.5 4.5-.8 72.7-7.9 72.7-7.9M406.55 997.5h433" fill="none" stroke="#212225" stroke-width="5"/>
  <path d="M556.45 296.5v-3.6c-2.2-.1-4.3-1.1-5.9-2.7-1.4-1.7-2.2-3.8-2.1-6h5.9c-.1 1.1.2 2.2.9 3.1.6.7 1.6 1.1 2.5 1.1.7 0 1.4-.2 1.9-.7.5-.5.7-1.3.7-2 0-.8-.2-1.6-.7-2.2-.7-.7-1.5-1.2-2.4-1.5-1.2-.5-2.2-1-3.2-1.4-.9-.4-1.8-1-2.5-1.7-.7-.6-1.2-1.4-1.6-2.2-.4-1-.6-2-.6-3.1-.1-1.9.7-3.7 2-5 1.5-1.4 3.4-2.2 5.4-2.3v-3.8h2.8v3.8c2 .2 3.8 1.2 5.1 2.7 1.3 1.6 1.9 3.6 1.8 5.6h-6c.1-1-.2-2-.7-2.9-.5-.7-1.2-1-2-1-.7 0-1.3.2-1.8.7-.5.6-.7 1.3-.6 2 0 .8.2 1.5.7 2.1.7.6 1.5 1.1 2.4 1.5 1.1.5 2.1 1 3.1 1.5.9.5 1.8 1 2.5 1.7.7.6 1.3 1.4 1.7 2.3.4 1 .6 2 .6 3.1.1 1.9-.6 3.7-1.9 5-1.4 1.3-3.3 2.1-5.2 2.3v3.6h-2.8zm-34.3-6.2c-1.8-1.8-2.8-4.3-2.7-6.9v-.5c0-1.8.3-3.6 1.1-5.2.7-1.5 1.8-2.7 3.2-3.5 1.5-.9 3.2-1.3 4.9-1.2 2.4-.1 4.7.8 6.4 2.5 1.6 2 2.5 4.5 2.3 7v2.3h-11.8c.2 1 .7 1.9 1.4 2.6.8.6 1.8 1 2.8.9 1.7.1 3.3-.7 4.4-2l2.7 3.3c-.8 1.1-1.9 1.9-3.2 2.5-1.4.6-2.9.9-4.4.9-2.6.1-5.2-.9-7.1-2.7zm3.4-9.2h6v-.5c.1-.8-.2-1.6-.7-2.2-.6-.6-1.4-.9-2.2-.8-1.8 0-2.8 1.1-3.1 3.5zm-22.6 9.2c-1.7-2-2.6-4.7-2.4-7.3v-.2c0-1.8.3-3.6 1.1-5.2.7-1.4 1.7-2.6 3.1-3.4 1.4-.8 3.1-1.2 4.8-1.2 2.2-.1 4.3.6 5.9 2.1 1.5 1.5 2.3 3.6 2.2 5.7h-5.6c.1-.8-.2-1.7-.7-2.3-.5-.5-1.2-.8-1.9-.8-1.5 0-2.4 1-2.7 3-.1.9-.1 1.7-.1 2.6-.1 1.4.1 2.8.7 4 .5.8 1.3 1.2 2.2 1.1.7 0 1.4-.2 1.9-.7.5-.5.7-1.2.7-1.9h5.6c.1 2-.8 3.9-2.2 5.2-1.6 1.4-3.7 2.1-5.8 2-2.7.1-5.1-.9-6.8-2.7zm-40.2 1c-1.2-1-1.9-2.6-1.9-4.2-.1-1.9.8-3.7 2.3-4.8 1.5-1.1 3.8-1.6 6.7-1.6h1.8v-1c0-1.8-.8-2.7-2.3-2.7-1-.1-2 .6-2.1 1.6v.5h-5.9c0-1.8.9-3.5 2.4-4.6 1.8-1.2 3.9-1.8 6-1.7 2.1-.1 4.1.5 5.8 1.8 1.4 1.2 2.2 3.1 2.2 5v8.6c-.1 1.4.2 2.8.8 4.1v.3h-5.9c-.3-.6-.5-1.1-.6-1.7a5.465 5.465 0 0 1-4.6 2.1c-1.8 0-3.5-.6-4.7-1.7zm4-4.5c0 .5.2 1 .5 1.3.4.3.9.5 1.4.5.6 0 1.3-.1 1.8-.5.4-.3.8-.6 1-1.1v-3.1h-1.7c-1.9.1-3 1.1-3 2.9zm-33.2 4.5c-1.2-1-1.9-2.6-1.9-4.2-.1-1.9.8-3.7 2.3-4.8 1.5-1.1 3.8-1.6 6.7-1.6h1.8v-1c0-1.8-.8-2.7-2.3-2.7-1-.1-2 .6-2.1 1.6v.5h-5.9c0-1.8.9-3.5 2.4-4.6 1.8-1.2 3.9-1.8 6-1.7 2.1-.1 4.1.5 5.8 1.8 1.4 1.2 2.2 3.1 2.2 5v8.6c-.1 1.4.2 2.8.8 4.1v.3h-5.9c-.3-.6-.5-1.1-.6-1.7a5.465 5.465 0 0 1-4.6 2.1c-1.7 0-3.4-.6-4.7-1.7zm4.1-4.5c0 .5.2 1 .5 1.3.4.3.9.5 1.4.5.6 0 1.3-.1 1.8-.5.4-.3.8-.6 1-1.1v-3.1h-1.7c-1.9.1-3 1.1-3 2.9zm14.4 5.8v-27.4h6v27.5l-6-.1zm40 0v-12.2c.1-.8-.1-1.5-.6-2.2-.6-.5-1.3-.8-2.1-.7-1.1-.1-2.1.5-2.6 1.4v13.7h-5.9v-19.3h5.6l.2 2.3c1.3-1.7 3.3-2.7 5.5-2.6 1.7-.1 3.3.5 4.5 1.8 1.1 1.6 1.6 3.5 1.5 5.4v12.5l-6.1-.1zm-82.5 0v-26h9.2c3.3 0 5.8.6 7.5 1.8 1.7 1.2 2.7 3.2 2.6 5.3 0 1.2-.3 2.4-.9 3.4-.6 1-1.6 1.7-2.7 2.1 1.2.3 2.3 1 3.1 2 .7 1 1.1 2.3 1.1 3.6.2 2.2-.7 4.3-2.4 5.7-1.6 1.3-4 1.9-7.1 2l-10.4.1zm6.2-4.8h4.1c.9.1 1.8-.2 2.6-.8.6-.6.9-1.4.9-2.2 0-2.2-1.1-3.3-3.2-3.3h-4.3l-.1 6.3zm0-10.4h3.2c1 .1 2-.2 2.9-.8.6-.6.9-1.4.9-2.2.1-.9-.3-1.8-.9-2.4-.9-.6-2-.8-3-.7h-3l-.1 6.1zm-66.5-23.3l1-2c1.3-2.2 2-4.7 2.2-7.3v-7.3h8v6.4c-.1 2.4-.7 4.8-1.8 6.9-1 2.2-2.5 4.1-4.4 5.7l-5-2.4zm180.8-13.3c-2.6-3.2-3.9-7.6-3.9-13.4v-7.8c0-5.8 1.3-10.3 3.9-13.4 2.6-3.1 6.3-4.7 11.1-4.7s8.5 1.6 11.1 4.7c2.6 3.2 3.9 7.6 3.9 13.4v7.8c0 5.8-1.3 10.3-3.9 13.4-2.6 3.1-6.3 4.7-11.1 4.7-4.7 0-8.4-1.5-11.1-4.7zm7.4-29.5c-.9 2-1.3 4.2-1.3 6.4v11c0 3.2.4 5.5 1.2 7 .7 1.4 2.2 2.3 3.9 2.2 1.6.1 3-.8 3.8-2.2.8-1.4 1.2-3.7 1.2-6.8v-10.6c.1-2.4-.3-4.7-1.2-6.9-.7-1.5-2.2-2.4-3.9-2.3-1.5 0-3 .8-3.7 2.2zm-42.6 29.5c-2.6-3.2-3.9-7.6-3.9-13.4v-7.8c0-5.8 1.3-10.3 3.9-13.4 2.6-3.1 6.3-4.7 11.1-4.7s8.5 1.6 11.1 4.7c2.6 3.2 3.9 7.6 3.9 13.4v7.8c0 5.8-1.3 10.3-3.9 13.4-2.6 3.1-6.3 4.7-11.1 4.7-4.7 0-8.4-1.5-11.1-4.7zm7.4-29.5c-.9 2-1.3 4.2-1.3 6.4v11c0 3.2.4 5.5 1.2 7 .7 1.4 2.2 2.3 3.9 2.2 1.6.1 3-.8 3.8-2.2.8-1.4 1.2-3.7 1.2-6.8v-10.6c.1-2.4-.3-4.7-1.2-6.9-.7-1.5-2.2-2.4-3.9-2.3-1.5 0-3 .8-3.7 2.2zm-61 29.5c-2.6-3.2-3.9-7.6-3.9-13.4v-7.8c0-5.8 1.3-10.3 3.9-13.4 2.6-3.1 6.3-4.7 11.1-4.7s8.5 1.6 11.1 4.7c2.6 3.2 3.9 7.6 3.9 13.4v7.8c0 5.8-1.3 10.3-3.9 13.4-2.6 3.1-6.3 4.7-11.1 4.7-4.7 0-8.4-1.5-11.1-4.7zm7.4-29.5c-.9 2-1.3 4.2-1.3 6.4v11c0 3.2.4 5.5 1.2 7 .7 1.4 2.2 2.3 3.9 2.2 1.6.1 3-.8 3.8-2.2.8-1.4 1.2-3.7 1.2-6.8v-10.6c.1-2.4-.3-4.7-1.2-6.9-.7-1.5-2.2-2.4-3.9-2.3-1.5 0-3 .8-3.7 2.2zm-42.6 29.5c-2.6-3.2-3.9-7.6-3.9-13.4v-7.8c0-5.8 1.3-10.3 3.9-13.4 2.6-3.1 6.3-4.7 11.1-4.7s8.5 1.6 11.1 4.7c2.6 3.2 3.9 7.6 3.9 13.4v7.8c0 5.8-1.3 10.3-3.9 13.4-2.6 3.1-6.3 4.7-11.1 4.7-4.7 0-8.4-1.5-11.1-4.7zm7.4-29.5c-.9 2-1.3 4.2-1.3 6.4v11c0 3.2.4 5.5 1.2 7 .7 1.4 2.2 2.3 3.9 2.2 1.6.1 3-.8 3.8-2.2.8-1.4 1.2-3.7 1.2-6.8v-10.6c.1-2.4-.3-4.7-1.2-6.9-.7-1.5-2.2-2.4-3.9-2.3-1.5 0-3 .8-3.7 2.2zm-42.6 29.5c-2.6-3.2-3.9-7.6-3.9-13.4v-7.8c0-5.8 1.3-10.3 3.9-13.4 2.6-3.1 6.3-4.7 11.1-4.7s8.5 1.6 11.1 4.7c2.6 3.2 3.9 7.6 3.9 13.4v7.8c0 5.8-1.3 10.3-3.9 13.4-2.6 3.1-6.3 4.7-11.1 4.7-4.7 0-8.4-1.5-11.1-4.7zm7.4-29.5c-.9 2-1.3 4.2-1.3 6.4v11c0 3.2.4 5.5 1.2 7 .7 1.4 2.2 2.3 3.9 2.2 1.6.1 3-.8 3.8-2.2.8-1.4 1.2-3.7 1.2-6.8v-10.6c.1-2.4-.3-4.7-1.2-6.9-.7-1.5-2.2-2.4-3.9-2.3-1.5 0-3 .8-3.7 2.2zm-59 29.5c-2.6-3.2-3.9-7.6-3.9-13.4v-7.8c0-5.8 1.3-10.3 3.9-13.4 2.6-3.1 6.3-4.7 11.1-4.7s8.5 1.6 11.1 4.7c2.6 3.2 3.9 7.6 3.9 13.4v7.8c0 5.8-1.3 10.3-3.9 13.4-2.6 3.1-6.3 4.7-11.1 4.7-4.7 0-8.4-1.5-11.1-4.7zm7.4-29.5c-.9 2-1.3 4.2-1.3 6.4v11c0 3.2.4 5.5 1.2 7 .7 1.4 2.2 2.3 3.9 2.2 1.6.1 3-.8 3.8-2.2.8-1.4 1.2-3.7 1.2-6.8v-10.6c.1-2.4-.3-4.7-1.2-6.9-.7-1.5-2.2-2.4-3.9-2.3-1.5 0-3 .8-3.7 2.2zm148.4 32.6c-2-1.8-2.1-4.9-.3-6.9l.3-.3c2.3-1.9 5.6-1.9 7.9 0 2 1.8 2.1 4.9.3 6.9l-.3.3c-2.3 1.8-5.6 1.8-7.9 0zm207.2 1.1l-9.2-16-4.3 4.7V245h-10.4v-42.9h10.4V221l3.6-5.4 9.3-13.5h12.9l-14.6 19 14.6 23.9h-12.3zm-39.9 0l-7.6-15.2h-5.6V245h-10.4v-42.9h17c5.1 0 9.1 1.1 12 3.4 2.9 2.3 4.3 5.4 4.3 9.6.1 2.6-.5 5.2-1.8 7.4-1.4 2.1-3.4 3.8-5.7 4.8l9 17.3v.4h-11.2zm-13.3-23.2h6.6c2.9.4 5.6-1.7 6-4.6.1-.4.1-.8 0-1.3.1-1.6-.5-3.2-1.5-4.4a6.106 6.106 0 0 0-4.5-1.6h-6.6v11.9zm-24.7 23.2l-2.5-8h-14.3l-2.5 8h-11.1l15.9-42.9h9.8l16 42.9h-11.3zm-14.3-16h9.3l-4.7-14.9-4.6 14.9zm-297.7 16v-31.7l-9.9 2.9v-7.5l19-6.5h.9v42.9l-10-.1z" fill="#dbdde6" fill-rule="nonzero"/>
</svg>
