<svg viewBox="0 0 1000 1000" xmlns="http://www.w3.org/2000/svg" fill-rule="evenodd" clip-rule="evenodd" stroke-linecap="round">
  <path d="M903.349 999.5V94.7c0-37.1-30.1-67.1-67.1-67.1h-75.2c-6 0-10.7 3.1-10.7 8.1v10.7c0 7.4-1.4 32.2-37.6 32.2h-308.4c-36.2 0-37.6-24.8-37.6-32.2V35.7c0-5-4.8-8.1-10.7-8.1h-80.6c-37.1 0-67.1 30.1-67.1 67.1v540.7c0 13.7-27 16.5-27-2.2V90.5c0-49.7 40.3-90 90-90h569c49.7 0 90 40.3 90 90v168" fill="none" stroke="#dbdde6" stroke-width="5"/>
  <path d="M412.349 658.5h393c22.1 0 40 17.9 40 40v172c0 22.1-17.9 40-40 40h-252M449.349 959.5h356c22.1 0 40 17.9 40 40" fill="none" stroke="#dbdde6" stroke-width="4" stroke-linecap="butt"/>
  <path d="M657.749 818.5V796h2.4v22.5h-2.4zm-69.8 0V796h2.4v22.5h-2.4zm46.8-5.7c-1.4-1.6-2.1-3.9-2.1-6.9v-.9c0-1.7.3-3.3 1-4.9.6-1.3 1.5-2.5 2.8-3.2 1.2-.8 2.7-1.2 4.2-1.1 2-.1 3.9.6 5.5 1.8 1.4 1.3 2.3 3.1 2.3 5h-4.5c.1-.9-.3-1.8-.9-2.5-.7-.6-1.6-.8-2.5-.8-1-.1-1.9.4-2.5 1.3-.6 1.3-.9 2.7-.8 4.1v1.3c-.1 1.5.2 3 .8 4.3.5.9 1.5 1.4 2.6 1.3.9.1 1.7-.2 2.4-.7.6-.6.9-1.5.9-2.4h4.5c0 1.2-.4 2.4-1.1 3.5-.7 1-1.6 1.8-2.7 2.4-1.2.6-2.6.9-4 .8-2.3.1-4.4-.7-5.9-2.4zm78.1 2.2v-7.9h-6.6v7.9h-4.5v-19h4.5v7.5h6.6V796h4.5v19h-4.5zm-23.1 0v-15.5h-5.5V796h15.6v3.5h-5.6v15.4l-4.5.1zm-19.5 0v-19h12.9v3.5h-8.4v4h7.1v3.4h-7.1v4.5h8.4v3.5l-12.9.1zm-48.7 0v-15.5h-5.5V796h15.6v3.5h-5.6v15.4l-4.5.1zm-21.1 0v-19h6.7c1.9-.1 3.8.3 5.5 1.3 1.3.9 2 2.4 1.9 3.9 0 .9-.2 1.8-.7 2.5-.5.7-1.2 1.3-2 1.5.9.2 1.7.7 2.2 1.5.5.8.8 1.7.8 2.6.1 1.6-.5 3.1-1.7 4.2-1.5 1-3.3 1.5-5.1 1.4l-7.6.1zm4.5-3.5h2.9c.7 0 1.3-.2 1.9-.6.4-.4.7-1 .7-1.6.2-1.1-.6-2.2-1.8-2.4h-3.8l.1 4.6zm0-7.6h2.3c.7.1 1.5-.1 2.1-.6.4-.4.7-1 .6-1.6.1-.7-.2-1.3-.7-1.7-.7-.4-1.4-.6-2.2-.5h-2.2l.1 4.4zm-30.8 11.1l-4-7.1-1.8 2.1v5h-4.5v-19h4.5v8.4l5.6-8.4h5.6l-6.3 8.4 6.3 10.6h-5.4zm-17.2 0l-3.3-6.7h-2.4v6.7h-4.5v-19h7.3c1.9-.1 3.7.4 5.2 1.5 1.3 1 2 2.6 1.9 4.2 0 1.1-.2 2.3-.8 3.3-.6.9-1.5 1.7-2.5 2.1l3.9 7.7v.2h-4.8zm-5.8-10.2h2.8c.7.1 1.4-.2 1.9-.7.5-.5.7-1.2.6-1.9 0-.7-.2-1.4-.7-1.9-.5-.5-1.2-.8-1.9-.7h-2.8l.1 5.2zm-10.7 10.2l-1.1-3.5h-6.2l-1.1 3.5h-4.7l6.8-19h4.2l6.9 19h-4.8zm-6.1-7.1h4l-2-6.6-2 6.6zm115.2-34.5v-6.9h-1.9V764h1.9v-3.2h3.4v3.2h2.2v2.5h-2.2v6.4c0 .4.1.7.3 1 .3.2.7.4 1 .3.3 0 .7 0 1-.1v2.6c-.7.2-1.4.3-2.1.3-2.3 0-3.5-1.2-3.6-3.6zm-13 1.9c-1.2-1.2-1.9-2.9-1.8-4.6v-.3c0-1.2.2-2.4.7-3.5.5-1 1.2-1.8 2.1-2.4.9-.6 2-.8 3.1-.8 1.6-.1 3.1.5 4.2 1.7 1.1 1.3 1.6 3 1.5 4.7v1.4h-8.2c.1.8.4 1.5 1 2s1.3.8 2.1.8c1.2.1 2.4-.5 3.1-1.4l1.7 1.9c-.5.7-1.3 1.3-2.1 1.7-.9.4-1.9.6-2.9.6-1.6 0-3.2-.6-4.5-1.8zm2.6-8.2c-.5.6-.8 1.3-.8 2h4.8v-.3c0-.6-.2-1.3-.6-1.8-.4-.4-1.1-.7-1.7-.6-.7 0-1.3.3-1.7.7zm-30.6 8.8c-.8-.7-1.3-1.7-1.2-2.8-.1-1.2.5-2.4 1.5-3.1 1.3-.8 2.8-1.2 4.4-1.1h1.6v-.7c0-.5-.1-1-.5-1.4-.4-.4-.9-.6-1.4-.5-.5 0-1 .1-1.4.4-.3.3-.5.7-.5 1.1h-3.4c0-.7.2-1.5.7-2.1.5-.7 1.2-1.2 2-1.5.9-.4 1.9-.6 2.8-.5 1.4-.1 2.7.4 3.8 1.2 1 .8 1.5 2.1 1.4 3.4v5.6c0 1 .1 1.9.5 2.8v.2h-3.5c-.2-.4-.3-.8-.3-1.2-.8.9-2 1.4-3.2 1.4-1.3 0-2.4-.4-3.3-1.2zm2.2-3.2v.2c0 .4.2.8.5 1.1.3.3.8.4 1.2.4.5 0 1-.1 1.4-.3.4-.2.7-.5 1-.9V771h-1.3c-1.8-.1-2.7.5-2.8 1.7zm-50.3 3.1c-.8-1-1.2-2.2-1.1-3.5v-8.4h3.4v8.3c0 1.3.6 2 1.8 2 1 .1 1.9-.4 2.4-1.2v-9.1h3.5v12.9h-3.2l-.1-1.3c-.9 1-2.2 1.6-3.5 1.5-1.2.1-2.4-.3-3.2-1.2zm-14.2-.6c-1.2-1.3-1.8-3.1-1.7-4.9v-.2c0-1.2.2-2.4.7-3.4.5-1 1.2-1.8 2.1-2.3 1-.6 2.1-.8 3.2-.8 1.6-.1 3.1.5 4.3 1.6 1.1 1.2 1.8 2.7 1.8 4.3v.9c.1 1.7-.5 3.4-1.7 4.8-2.3 2.4-6.2 2.4-8.7 0zm2.5-7.8c-.5.9-.8 2-.7 3-.1 1 .2 2 .7 2.8.8 1.1 2.4 1.3 3.5.5.2-.1.3-.3.5-.5.5-.9.8-2 .7-3.1.1-1-.2-2-.7-2.8-.4-.6-1.2-1-2-1-.8.1-1.6.5-2 1.1zm79.7 9.4v-18.3h3.5v18.3h-3.5zm-6.9 0v-18.3h3.5v18.3h-3.5zm-22.1 0l-2.4-8.1-2.4 8.1h-2.9l-3.3-12.9h3.3l1.7 8.2 2.4-8.2h2.5l2.3 8.2 1.7-8.2h3.3l-3.3 12.9h-2.9zm-25.9 0v-12.9h3.2l.1 1.5c.5-1.1 1.6-1.8 2.9-1.8.4 0 .7.1 1.1.2v3.3c-.4-.1-.8-.1-1.2-.1-1-.1-2.1.4-2.6 1.3v8.4l-3.5.1zm-38.8 0v-6.3l-5.7-11.1h3.9l3.6 7.8 3.6-7.8h3.9l-5.7 11.1v6.3h-3.6z" fill="#dbdde6" fill-rule="nonzero"/>
  <g>
    <path d="M707.349 559h-108c-3.7 0-7.3-.7-10.7-2.2-3.3-1.4-6.2-3.4-8.7-5.9-2.5-2.5-4.5-5.5-5.9-8.7-1.4-3.4-2.2-7-2.2-10.7v-80c0-3.7.7-7.3 2.2-10.7 1.4-3.3 3.4-6.2 5.9-8.7 2.5-2.5 5.5-4.5 8.7-5.9 3.4-1.4 7-2.2 10.7-2.2h108c3.7 0 7.3.7 10.7 2.2 3.3 1.4 6.2 3.4 8.7 5.9 2.5 2.5 4.5 5.5 5.9 8.7 1.4 3.4 2.2 7 2.2 10.7v80c0 3.7-.7 7.3-2.2 10.7-1.4 3.3-3.4 6.2-5.9 8.7-2.5 2.5-5.5 4.5-8.7 5.9-3.4 1.5-7 2.2-10.7 2.2zm-192 0h-108c-3.7 0-7.3-.7-10.7-2.2-3.3-1.4-6.2-3.4-8.7-5.9-2.5-2.5-4.5-5.5-5.9-8.7-1.4-3.4-2.2-7-2.2-10.7v-80c0-3.7.7-7.3 2.2-10.7 1.4-3.3 3.4-6.2 5.9-8.7 2.5-2.5 5.5-4.5 8.7-5.9 3.4-1.4 7-2.2 10.7-2.2h108c3.7 0 7.3.7 10.7 2.2 3.3 1.4 6.2 3.4 8.7 5.9 2.5 2.5 4.5 5.5 5.9 8.7 1.4 3.4 2.2 7 2.2 10.7v80c0 3.7-.7 7.3-2.2 10.7-1.4 3.3-3.4 6.2-5.9 8.7-2.5 2.5-5.5 4.5-8.7 5.9-3.4 1.5-7 2.2-10.7 2.2z" fill="none" stroke="#000" stroke-linecap="butt" stroke-miterlimit="10"/>
    <path d="M707.349 556.5c3.4 0 6.7-.7 9.7-2 3-1.3 5.7-3.1 7.9-5.4 2.3-2.3 4.1-5 5.4-7.9 1.3-3.1 2-6.4 2-9.7v-80c0-3.4-.7-6.7-2-9.7-1.3-3-3.1-5.7-5.4-7.9-2.3-2.3-5-4.1-7.9-5.4-3.1-1.3-6.4-2-9.7-2h-108c-3.4 0-6.7.7-9.7 2-3 1.3-5.7 3.1-7.9 5.4-2.2 2.3-4.1 5-5.4 7.9-1.3 3.1-2 6.4-2 9.7v80c0 3.4.7 6.7 2 9.7 1.3 3 3.1 5.7 5.4 7.9 2.3 2.3 5 4.1 7.9 5.4 3.1 1.3 6.4 2 9.7 2h108m-192 0c3.4 0 6.7-.7 9.7-2 3-1.3 5.7-3.1 7.9-5.4 2.3-2.3 4.1-5 5.4-7.9 1.3-3.1 2-6.4 2-9.7v-80c0-3.4-.7-6.7-2-9.7-1.3-3-3.1-5.7-5.4-7.9-2.3-2.2-5-4.1-7.9-5.4-3.1-1.3-6.4-2-9.7-2h-108c-3.4 0-6.7.7-9.7 2-3 1.3-5.7 3.1-7.9 5.4-2.3 2.3-4.1 5-5.4 7.9-1.3 3.1-2 6.4-2 9.7v80c0 3.4.7 6.7 2 9.7 1.3 3 3.1 5.7 5.4 7.9 2.3 2.3 5 4.1 7.9 5.4 3.1 1.3 6.4 2 9.7 2h108m192 5h-108c-16.6 0-30-13.4-30-30v-80c0-16.6 13.4-30 30-30h108c16.6 0 30 13.4 30 30v80c0 16.6-13.4 30-30 30zm-192 0h-108c-16.6 0-30-13.4-30-30v-80c0-16.6 13.4-30 30-30h108c16.6 0 30 13.4 30 30v80c0 16.6-13.4 30-30 30z" fill="#212225" fill-rule="nonzero"/>
    <path d="M636.349 512.5c-1.7 0-3-1.3-3-3v-3c0-1.7 1.3-3 3-3h35c1.7 0 3 1.3 3 3v3c0 1.7-1.3 3-3 3h-35zm-177-1c-1.7 0-3-1.3-3-3v-12h-12c-1.7 0-3-1.3-3-3v-4c0-1.7 1.3-3 3-3h12v-12c0-1.7 1.3-3 3-3h4c1.7 0 3 1.3 3 3v12h12c1.7 0 3 1.3 3 3v4c0 1.7-1.3 3-3 3h-12v12c0 1.7-1.3 3-3 3h-4zm192.4-12.5l-7.1-9.3c-.3-.4-.3-.8-.1-1.2.2-.4.6-.6 1.1-.6h3.6v-3.5c.1-7.2 5.9-12.9 13.1-12.8.5 0 1 .4 1.2.9v.3c0 .4-.3.8-.7 1l-.6.3c-3.6 1.7-5.9 5.4-5.9 9.4v4.5h3.6c.4 0 .9.2 1.1.6.2.4.2.9-.1 1.2l-7.1 9.3c-.4.5-1.2.6-1.7.2-.3-.1-.4-.2-.4-.3z" fill="#212225" fill-rule="nonzero"/>
    <path d="M444.249 368.5l1.3-2.6c1.6-2.9 2.6-6.1 2.8-9.3v-9.4h10.2v8.2c-.1 3.1-.8 6.1-2.2 8.8-1.3 2.8-3.2 5.3-5.5 7.3l-6.6-3zm299.3-7.3v-6.6c-7.6-.7-13.1-3.5-17.1-7.4l6.5-9.3c4 4.1 9.5 6.4 15.2 6.4 4.2 0 6.8-1.7 6.8-4 0-6.6-27-1.3-27-19.9 0-7.3 5.5-13.9 15.6-15.1v-6.8h7.9v6.9c5.4.7 10.6 2.9 14.8 6.4l-6.7 8.9c-3.9-3.2-8.8-5-13.9-5-3.6 0-5.1 1.4-5.1 3.5 0 6.1 26.9 1.7 26.9 19.6 0 8.7-5.6 14.7-15.9 15.9v6.6l-8-.1zm-69.5-9.8c-3.3-4-5-9.7-5-17.1v-10c0-7.4 1.7-13.1 5-17.1 3.3-4 8-6 14.1-6s10.8 2 14.2 6.1c3.3 4 5 9.8 5 17.1v10c0 7.4-1.7 13.1-5 17.1-3.3 4-8 6-14.1 6s-10.8-2-14.2-6.1zm9.4-37.8c-1 1.8-1.5 4.5-1.6 8.2v14c0 4.1.5 7.1 1.5 9 .9 1.8 2.9 3 4.9 2.8 2 .1 3.9-1 4.8-2.8 1-1.8 1.6-4.7 1.6-8.7v-13.6c0-3.9-.5-6.9-1.5-8.8-.9-1.9-2.8-3-4.9-2.9-2.1 0-3.9 1.1-4.8 2.8zm-54.1 37.8c-3.3-4-5-9.7-5-17.1v-10c0-7.4 1.7-13.1 5-17.1 3.3-4 8-6 14.1-6s10.8 2 14.2 6.1c3.3 4 5 9.8 5 17.1v10c0 7.4-1.7 13.1-5 17.1-3.3 4-8 6-14.1 6-6.2 0-10.9-2-14.2-6.1zm9.3-37.8c-1 1.8-1.5 4.5-1.6 8.2v14c0 4.1.5 7.1 1.5 9 .9 1.8 2.9 3 4.9 2.8 2 .1 3.9-1 4.8-2.8 1-1.8 1.6-4.7 1.6-8.7v-13.6c0-3.9-.5-6.9-1.5-8.8-.9-1.9-2.8-3-4.9-2.9-2 0-3.9 1.1-4.8 2.8zm-77.5 37.8c-3.3-4-5-9.7-5-17.1v-10c0-7.4 1.7-13.1 5-17.1 3.3-4 8-6 14.1-6s10.8 2 14.2 6.1c3.3 4 5 9.8 5 17.1v10c0 7.4-1.7 13.1-5 17.1-3.3 4-8 6-14.1 6s-10.8-2-14.2-6.1zm9.4-37.8c-1 1.8-1.5 4.5-1.6 8.2v14c0 4.1.5 7.1 1.5 9 .9 1.8 2.9 3 4.9 2.8 2 .1 3.9-1 4.8-2.8 1-1.8 1.6-4.7 1.6-8.7v-13.6c0-3.9-.5-6.9-1.5-8.8-.9-1.9-2.8-3-4.9-2.9-2 0-3.9 1.1-4.8 2.8zm-54.1 37.8c-3.3-4-5-9.7-5-17.1v-10c0-7.4 1.7-13.1 5-17.1 3.3-4 8-6 14.1-6s10.8 2 14.2 6.1c3.4 4.1 5 9.8 5 17.1v10c0 7.4-1.7 13.1-5 17.1-3.3 4-8 6-14.1 6s-10.9-2-14.2-6.1zm9.3-37.8c-1 1.8-1.5 4.5-1.6 8.2v14c0 4.1.5 7.1 1.5 9 .9 1.8 2.9 3 4.9 2.8 2 .1 3.9-1 4.8-2.8 1-1.8 1.6-4.7 1.6-8.7v-13.6c0-3.9-.5-6.9-1.5-8.8-.9-1.9-2.8-3-4.9-2.9-2 0-3.9 1.1-4.8 2.8zm-54.1 37.8c-3.3-4-5-9.7-5-17.1v-10c0-7.4 1.7-13.1 5-17.1 3.3-4 8-6 14.1-6s10.8 2 14.2 6.1c3.4 4.1 5 9.8 5 17.1v10c0 7.4-1.7 13.1-5 17.1-3.3 4-8 6-14.1 6s-10.8-2-14.2-6.1zm9.4-37.8c-1 1.8-1.5 4.5-1.6 8.2v14c0 4.1.5 7.1 1.5 9 .9 1.8 2.9 3 4.9 2.8 2 .1 3.9-1 4.8-2.8 1-1.8 1.6-4.7 1.6-8.7v-13.6c0-3.9-.5-6.9-1.5-8.8-.9-1.9-2.8-3-4.9-2.9-2.1 0-3.9 1.1-4.8 2.8zm-75 37.8c-3.3-4-5-9.7-5-17.1v-10c0-7.4 1.7-13.1 5-17.1 3.3-4 8-6 14.1-6s10.8 2 14.2 6.1c3.4 4.1 5 9.8 5 17.1v10c0 7.4-1.7 13.1-5 17.1-3.3 4-8 6-14.1 6s-10.8-2-14.2-6.1zm9.4-37.8c-1 1.8-1.5 4.5-1.6 8.2v14c0 4.1.5 7.1 1.5 9 .9 1.8 2.9 3 4.9 2.8 2 .1 3.9-1 4.8-2.8 1-1.8 1.6-4.7 1.6-8.7v-13.6c0-3.9-.5-6.9-1.5-8.8-.9-1.9-2.8-3-4.9-2.9-2 0-3.9 1.1-4.8 2.8zm188.7 41.7c-2.5-2.3-2.7-6.3-.3-8.8l.3-.3c2.9-2.4 7.1-2.4 10.1 0 2.5 2.3 2.7 6.3.3 8.8l-.3.3c-3 2.4-7.2 2.4-10.1 0zm-232.3 1.4v-40.5l-12.5 3.7v-9.6l24.1-8.3h1.2v54.8l-12.8-.1zm178.6-84.5v-3.6h.7c.7 0 1.4-.1 2-.4.5-.3.8-.8 1-1.3l.6-1.5-6.2-17.6h5.1l3.3 10.9 3.3-10.9h5l-7.1 20.3-.4.9c-.8 2.1-2.9 3.5-5.2 3.4-.7.1-1.4 0-2.1-.2zm-116.2-2.1l.6-1.1c.7-1.2 1.1-2.6 1.1-3.9v-3.6h4v3.2c0 1.3-.3 2.5-.9 3.6-.5 1.2-1.3 2.2-2.3 3l-2.5-1.2zm291.8-6.7c-1.7-1.7-2.5-4-2.4-6.3v-.5c0-1.6.3-3.3 1-4.7.6-1.3 1.6-2.5 2.9-3.2 1.3-.8 2.8-1.2 4.3-1.1 2.1-.1 4.2.7 5.7 2.3 1.5 1.8 2.2 4.1 2.1 6.4v1.9h-11.3c.1 1.1.6 2 1.4 2.8.8.7 1.8 1.1 2.9 1 1.7.1 3.2-.7 4.2-2l2.3 2.6c-.7 1-1.7 1.8-2.9 2.3-1.3.6-2.6.9-4 .8-2.2.2-4.5-.7-6.2-2.3zm3.5-11.1c-.6.8-1 1.7-1.1 2.7h6.5v-.4c0-.9-.3-1.8-.8-2.4-.6-.6-1.5-.9-2.3-.9-.9 0-1.7.4-2.3 1zm-21.2 11.1c-1.5-1.8-2.3-4.2-2.2-6.6v-.3c-.1-2.4.7-4.7 2.2-6.5a7.703 7.703 0 0 1 5.9-2.4c1.9-.1 3.8.6 5.3 1.9 1.4 1.3 2.1 3.1 2 5h-4.4c0-.8-.3-1.6-.8-2.2-1.3-1.2-3.3-1.1-4.5.1l-.2.2c-.7 1.2-.9 2.5-.8 3.9v.5c-.1 1.4.2 2.7.8 3.9.6.8 1.5 1.3 2.5 1.2.8 0 1.5-.2 2.1-.7.5-.5.9-1.2.8-1.9h4.4c0 1.2-.3 2.3-1 3.3-.6 1-1.6 1.8-2.6 2.3-1.1.6-2.4.8-3.7.8-2.1 0-4.3-.9-5.8-2.5zm-37 .9c-1.1-.9-1.7-2.3-1.7-3.8-.1-1.7.7-3.3 2.1-4.3 1.8-1.1 3.9-1.6 6-1.5h2.2v-1c0-.7-.2-1.4-.6-1.9-.5-.5-1.2-.8-2-.7-.7 0-1.3.2-1.9.6-.5.4-.7 1-.7 1.6h-4.7c0-1 .3-2 .9-2.8.7-.9 1.6-1.6 2.7-2 1.2-.5 2.5-.8 3.9-.7 1.9-.1 3.7.5 5.2 1.6 1.3 1.2 2 2.8 1.9 4.6v7.6c-.1 1.3.2 2.6.7 3.8v.3h-4.8c-.2-.5-.4-1-.5-1.6-1.1 1.3-2.8 2-4.4 1.9-1.6-.2-3.1-.7-4.3-1.7zm3-4.4v.3c0 .5.2 1.1.6 1.4.5.4 1.1.6 1.7.6.7 0 1.3-.2 1.9-.5.5-.3 1-.7 1.3-1.2v-3h-1.8c-2.3 0-3.5.8-3.7 2.4zm-29.7 4.4c-1.1-.9-1.7-2.3-1.7-3.8-.1-1.7.7-3.3 2.1-4.3 1.8-1.1 3.9-1.6 6-1.5h2.2v-1c0-.7-.2-1.4-.6-1.9-.5-.5-1.2-.8-2-.7-.7 0-1.3.2-1.9.6-.5.4-.7 1-.7 1.6h-4.7c0-1 .3-2 .9-2.8.7-.9 1.6-1.6 2.7-2 1.2-.5 2.5-.8 3.9-.7 1.9-.1 3.7.5 5.2 1.6 1.3 1.2 2 2.8 1.9 4.6v7.6c-.1 1.3.2 2.6.7 3.8v.3h-4.8c-.2-.5-.4-1-.5-1.6-1.1 1.3-2.8 2-4.4 1.9-1.6-.2-3.1-.7-4.3-1.7zm3-4.4v.3c0 .5.2 1.1.6 1.4.5.4 1.1.6 1.7.6.7 0 1.3-.2 1.9-.5.5-.3 1-.7 1.3-1.2v-3h-1.8c-2.3 0-3.6.8-3.7 2.4zm-18.4 3.7l-.2 1.9h-4.2v-25h4.7v9c1.1-1.3 2.6-2 4.3-1.9 2-.1 3.9.8 5.1 2.4 1.3 2 2 4.3 1.8 6.7v.3c.1 2.3-.5 4.7-1.8 6.6-1.2 1.6-3.1 2.5-5 2.4-1.9-.2-3.6-1-4.7-2.4zm.3-10.4v6.9c.5 1.2 1.8 2 3.1 1.9 1.4.1 2.7-.9 3-2.2.3-1.1.4-2.2.3-3.3.1-1.4-.2-2.7-.8-3.9-.6-.8-1.5-1.3-2.5-1.2-1.3-.1-2.6.6-3.1 1.8zm-42.4 11c-1.1-1.3-1.6-3-1.5-4.8v-11.5h4.7v11.4c0 1.8.8 2.7 2.5 2.7 1.3.1 2.6-.5 3.3-1.7v-12.5h4.7v17.7h-4.4l-.1-1.8c-1.2 1.4-3 2.2-4.8 2.1-1.7.1-3.3-.5-4.4-1.6zm-18.7-.9c-1.6-1.8-2.4-4.2-2.3-6.6v-.2c0-1.6.3-3.2 1-4.7.6-1.3 1.6-2.4 2.9-3.2 1.3-.8 2.9-1.2 4.4-1.1 2.2-.1 4.3.7 5.8 2.2 1.6 1.6 2.5 3.7 2.5 5.9v1.2c.1 2.4-.7 4.7-2.3 6.5-3.3 3.3-8.6 3.3-12 0zm3.3-10.6c-.7 1.3-1 2.7-.9 4.2-.1 1.3.2 2.7.9 3.8 1.1 1.5 3.3 1.8 4.8.6l.6-.6c.7-1.3 1.1-2.7 1-4.2.1-1.3-.3-2.7-1-3.8-.6-.9-1.6-1.4-2.7-1.3-1.1-.1-2.1.4-2.7 1.3zm-44 12.3c-1.1-.5-2-1.2-2.7-2.2-.6-.9-1-1.9-1-3h4.5c0 .7.3 1.5.9 1.9.7.5 1.5.7 2.3.7.7 0 1.4-.1 2-.5.4-.3.7-.8.7-1.3 0-.6-.3-1.1-.9-1.4-.9-.4-1.8-.7-2.7-.9-4.2-.9-6.3-2.7-6.3-5.3 0-1.5.7-3 1.9-3.9 1.5-1.1 3.3-1.7 5.1-1.6 1.9-.1 3.8.5 5.4 1.6 1.3 1 2 2.5 2 4.1h-4.7c0-.6-.2-1.2-.7-1.7-.6-.5-1.3-.7-2-.7s-1.3.1-1.8.5c-.4.3-.7.8-.7 1.4 0 .5.3 1 .7 1.3.8.4 1.6.7 2.5.8 1 .2 2 .5 3 .8 2.5.9 3.7 2.5 3.7 4.7 0 1.6-.8 3-2.1 3.9-1.6 1-3.4 1.6-5.3 1.5-1.3.1-2.6-.2-3.8-.7zm-34.3 0c-1.1-.5-2-1.2-2.7-2.2-.6-.9-1-1.9-1-3h4.5c0 .7.3 1.5.9 1.9.7.5 1.5.7 2.3.7.7 0 1.4-.1 2-.5.4-.3.7-.8.7-1.3 0-.6-.3-1.1-.9-1.4-.9-.4-1.8-.7-2.7-.9-4.2-.9-6.3-2.7-6.3-5.3 0-1.5.7-3 1.9-3.9 1.5-1.1 3.3-1.7 5.1-1.6 1.9-.1 3.8.5 5.4 1.6 1.3 1 2 2.5 2 4.1h-4.7c0-.6-.2-1.2-.7-1.7-.6-.5-1.3-.7-2-.7s-1.3.1-1.8.5c-.4.3-.7.8-.7 1.4 0 .5.3 1 .7 1.3.8.4 1.6.7 2.5.8 1 .2 2 .5 3 .8 2.5.9 3.7 2.5 3.7 4.7 0 1.6-.8 3-2.1 3.9-1.6 1-3.4 1.6-5.3 1.5-1.2.1-2.6-.2-3.8-.7zm-40.6-4.2v-9.5h-2.6v-3.4h2.6v-4.3h4.7v4.3h3v3.4h-3v8.8c0 .5.1 1 .4 1.4.4.3.9.5 1.4.4.5 0 .9 0 1.4-.1v3.6c-.9.3-1.9.4-2.8.4-3.4 0-5.1-1.7-5.1-5zm245.8 4.7v-11.2c.1-.8-.2-1.6-.7-2.2-.6-.5-1.4-.7-2.2-.7-1.2-.1-2.4.6-3 1.7v12.4h-4.7v-17.6h4.4l.1 2c1.2-1.5 3.1-2.4 5.1-2.4 1.6-.1 3.1.5 4.2 1.6 1 1.4 1.5 3.2 1.4 4.9v11.5h-4.6zm-94.3 0v-17.6h4.4l.1 2.1c.7-1.5 2.3-2.4 3.9-2.4.5 0 1 .1 1.5.2l-.1 4.5c-.6-.1-1.1-.1-1.7-.1-1.8 0-2.9.6-3.5 1.8v11.5h-4.6zm-88 0v-17.6h4.7v17.6h-4.7zm-34.3 0v-17.6h4.7v17.6h-4.7zm-8.5 0v-11.1c.1-.8-.2-1.6-.7-2.2-.6-.5-1.4-.8-2.2-.7-1.2-.1-2.4.5-3 1.6v12.4h-4.7v-25h4.7v9.3c1.1-1.4 2.9-2.3 4.7-2.2 3.8 0 5.8 2.2 5.8 6.6v11.3h-4.6zm-46.7 0v-17.6h4.7v17.6h-4.7zm-9.1 0v-10.1h-9.5v10.1h-4.9v-23.7h4.9v9.6h9.5v-9.6h4.9v23.7h-4.9zm244-.1v-24.9h4.7v25l-4.7-.1zm-145-20.3c-1-1-1-2.5 0-3.5 1.1-.9 2.7-.9 3.8 0 1 1 1 2.5 0 3.5-1.1.9-2.7.9-3.8 0zm-34.3 0c-1-1-1-2.5 0-3.5 1.1-.9 2.7-.9 3.9 0 1 1 1 2.5 0 3.5-1.1.9-2.7.9-3.9 0zm-55.2 0c-1-1-1-2.5 0-3.5 1.1-.9 2.7-.9 3.9 0 1 1 1 2.5 0 3.5-1.1.9-2.7.9-3.9 0z" fill="#dbdde6" fill-rule="nonzero"/>
  </g>
  <g>
    <path d="M199.349 998.5l3.5-40.7s-.7-19.3 9.5-26.3 47.8-37.7 56-45c8.2-7.3 10.8-15.3 24-22 13.2-6.7-14.4 3.8-14.4 3.8l-111.6 65.2-7 66 40-1zM93.349 844.5c7 2.7 40.8 2.9 54-4 13.2-6.9 23.7-7.5 31-1 7.3 6.5 9 11 9 11-5.3-5.2-12.6-7.8-20-7-12.5 1.4-24.8 7-74 1zM201.349 732.5c4.6 27.1 24.2 46.1 17 69-5.3 17.1-5.8 25-5 30 .8 5 3.2 19.8-.6 21.7-3.8 1.9-14.4 2.3-14.4 2.3s-5.3-14-9-18 1-12 1-12 17.7-29.4 16-47c-1.7-17.6-7.9-45.2-5-46z" fill="#212225" fill-rule="nonzero"/>
    <path d="M471.349 935.4c-.9-2.4-7.4-10.6-10-12.9-2.6-2.3-3.1-12-3.1-12l-.9-9s10 .4 16-1 15-3.5 14 3 .8 19.1 5 23c4.2 3.9 9.6 8.9 9.6 8.9-2.8 2.1-6.1 3.3-9.6 3.5h-.5c-5.7-.1-19.7-1.2-20.5-3.5zm-381.1-23.6c.1 1.7.1 2.7.1 2.7-.1-.9-.1-1.8-.1-2.7zm.1-25.4c1-7.7 7-20.9 7-20.9s21.4-.9 41-1c19.6-.1 55.9-5.9 55.9-5.9s-19.9 15.7-43.9 18.9c-24 3.2-35.9 13.5-49 18-9.6 3.3-11 11.9-11.1 16.3-.3-5.8-.7-19.4.1-25.4zm223-35.9c4-3.6 17.6-19.1 21-34 2.4-10.6 6.5-14.8 11.4-15.2 4.9-.4 12.3-1.1 12.3-1.1l-4.8 7.4s-6.9 18.7-11.7 26.6c-2.9 4.8-6.4 9.3-10.3 13.3 0 0-13.6 4.1-17.5 4.1-.9 0-1.3-.3-.4-1.1zm-70-182c-2.6-9.8 2-19 2-19l19.6-4.4-.6-22.6.6-16.8-2.6-8.2 10-4s9.2 2 10 9c.8 7 15.1 14.8 15.1 14.8s13 6.2 9.7 6.1c-3.3-.1-26.8.5-30.8 9.1s-2.2 17.1-2 20c3.1 38.8-27.9 15.4-11 43-3.6-2.7-17.4-17.2-20-27zm82.1-33.4c-7.2-5.5-17.1-9.6-17.1-9.6s22.3 7.1 26 7c3.7-.1 1.6 7 1.6 7l1.4 19s-6.7-19.5-11.9-23.4zm14.9-138.6c-7.4-.5-15.3-7.7-24-5-5 1.6-10.5 0-14-4l17-17s30.9 4.3 36 12c4.9 7.4-6.7 14-14.2 14h-.8z" fill="#dbdee5" fill-rule="nonzero"/>
    <path d="M265.149 645.8s-41.6 10.8-69.8 16.7c-28.2 5.9-61.7 15.4-80 67-13 36.7-39.5 119.9-43 126-3.5 6.1-5.2 9 5 15 4.7 2.8 15.3 5.7 15.3 5.7M168.449 932.7l-5.1 65.8h259s-2.6-22.9-5-66.4" fill="none" stroke="#212225" stroke-width="5"/>
    <path d="M248.349 650.5c-11.3 22 13 57 72 57 48.7 0 36.4-47.4 24.4-54.9" fill="none" stroke="#212225" stroke-width="5"/>
    <path d="M336.449 649.3s50.4 20 62.9 25.2c12.5 5.2 16.7 12.2 23 22 6.3 9.8 18.2 36.3 18.2 36.3M99.349 864.8s-11.8 18.9-9 38.7c2.8 19.8 8.4 46.3 31 44 22.6-2.3 118.4-50.7 154-78 6.9-5.3 17.8-5.7 22-11 4.2-5.3 22.4-10.8 29-12 16-2.8 24.2-27.2 25-33 .8-5.8 3.6-11.1 7-11 1.8.1 11.1 0 19.4 0m1.4-11.9c-8.3-1.5-26.4-1.3-41.5-.9-4.6.1-8.8.3-12.2.5-3.3.1-5.8.3-7.1.3-7.3.4-12.9 3.6-18 9s-12.8 13.3-17 19c-4.2 5.7-14.6 13.8-26 20-10.9 5.9-28.7 13.7-80 24" fill="none" stroke="#212225" stroke-width="5"/>
    <path d="M202.349 732.5c10.1 55.6 2.8 79.2-9 93-4.8 5.6-4.1 7.2-1 10 6.8 6.2 8 18 8 18M193.349 838.5s-10.8-9.3-12-18M70.849 864.3s3.2-3.8 29.5-.8 47.5 3.8 76.3-.9M516.249 748.4s.7-10.1-12.6-10.7c-13.3-.6-90.1-6.1-100.4-6.2-10.3-.1-16.6 6-17.7 13-1.1 7-17.6 159.5-19.2 177-.9 10.2 4 8.6 13 9 9 .4 88 2 88 2" fill="none" stroke="#212225" stroke-width="5"/>
    <path d="M407.249 746.7c3.6-.1 6.6 2.8 6.7 6.4 0 .4 0 .7-.1 1.1l-2 18c-.6 4.2-4.1 7.4-8.3 7.5-3.6.1-6.6-2.8-6.7-6.4 0-.4 0-.7.1-1.1l2-18c.5-4.2 4.1-7.4 8.3-7.5z" fill="none"/>
    <path d="M407.249 751.7c-.8 0-1.6.3-2.2.9-.7.6-1.1 1.4-1.2 2.1l-2 18c-.1.6.1 1.1.4 1.4.3.3.8.5 1.3.5.8 0 1.6-.3 2.2-.9.7-.6 1.1-1.4 1.2-2.1l2-18c.1-.6-.1-1.1-.4-1.4-.2-.3-.7-.5-1.3-.5m0-5c4.1 0 7.1 3.4 6.7 7.5l-2 18c-.5 4.1-4.2 7.5-8.3 7.5-4.1 0-7.1-3.4-6.7-7.5l2-18c.5-4.1 4.2-7.5 8.3-7.5z" fill="#212225" fill-rule="nonzero"/>
    <path d="M379.249 930.3s-4.6-4.9-3.5-16c1.1-11.1 17.1-157.2 17.8-164.1.7-6.9 6.6-10.3 14-10 7.4.3 94.3 5.8 103 6 8.7.2 8 8 7.1 13.6-.9 5.6-20.3 127.3-20.3 127.3" fill="none" stroke="#212225" stroke-width="5"/>
    <path d="M503.349 884.5c-8.8 5.6-18.7 9.3-29 11-7.8 1.2-20.4-2.2-15 17 3.2 11.5 6.9 11.9 9 16 2.1 4.1.8 8.7 12 9 11.2.3 18.4 3.8 25-8 6.6-11.8 9.1-16.3 8-32-1.7-25.7-10.9-26.9-10.9-26.9M147.849 865.8s-7.4-.2-15.5 11.7M157.949 682.9s-8.5-2.3-19.4 7.1M402.949 720.6c2.3 2.8 4.1 6 5.3 9.5" fill="none" stroke="#212225" stroke-width="5"/>
    <g>
      <path d="M360.149 496.9s21-29.9 3.2-43.4c-31.8-24.3-57.9 1.8-80 9s-52.9 2.7-64 44c-11.1 41.3 7.6 78.1 38 100 7.3 5.2 12-8 12-8s-14.9-9.7-18.5-24c-3.6-14.3-4.1-33.5 2.5-36s15.2 2.7 17.7 11.9 3.1 25.7 3.1 25.7l7.2 3.3 4.7-1.4s1.9-19.1 6.3-25.1-.7-26.8-2-35.4c-1.3-8.6.2-22.5 10-29 14.3-9.5 20.4-3.3 33.4-1.4s17.3-2.1 17.3-2.1l9.1 11.9z" fill="#212225" fill-rule="nonzero"/>
      <path d="M271.349 593.5s-3.7.9-9-2-15.7-17.7-14-39c1.7-21.3 19.3-10 21-6 1.7 4 3.9 17 4 26 .1 9 13 9 13 6s-1.3-12.5 4-21c6.8-11 3.5-30 1-49s24.4-26.2 30-25c5.6 1.2 14.3 7.1 25 2 6.1-2.9 6.3 3.2 14 14 22.7 31.8 9.7 95.9 8 104-1.7 8.1-7 23.7-20 26-13 2.3-35.5-1.1-51-13M279.649 608.1s-11-7.9-14.6-14.3M266.349 602.5v54m69 12v-37.4" fill="none" stroke="#212225" stroke-width="5"/>
    </g>
    <path d="M136.349 998.5h433" fill="none" stroke="#212225" stroke-width="5"/>
  </g>
</svg>
