<svg xmlns="http://www.w3.org/2000/svg" width="49.037" height="50.999" viewBox="0 0 49.037 50.999">
  <path id="Forma_1" data-name="Forma 1" d="M957.753,720a2.253,2.253,0,0,1-2.087-1.391l-1.1-2.7c-3.775-9.208-8.218-13.137-14.854-13.137h-8.443c-6.636,0-11.079,3.929-14.854,13.138l-1.1,2.695a2.26,2.26,0,0,1-2.933,1.227,2.221,2.221,0,0,1-1.24-2.9l1.1-2.7c2.8-6.834,7.822-15.919,19.027-15.919h8.443c11.2,0,16.225,9.085,19.027,15.919l1.1,2.7a2.221,2.221,0,0,1-1.24,2.9A2.272,2.272,0,0,1,957.753,720Zm-22.268-25.976A12.512,12.512,0,1,1,935.441,669h.1a12.542,12.542,0,0,1,12.577,11.269,2.216,2.216,0,0,1-.01.523c.014.238.021.479.021.72A12.59,12.59,0,0,1,935.486,694.021Zm-4.4-19.286a8.037,8.037,0,0,0,4.4,14.829,8.13,8.13,0,0,0,7.977-6.466q-.219.008-.438.007A12.582,12.582,0,0,1,931.089,674.735Zm4.323-1.279a8.1,8.1,0,0,0,7.613,5.193h.066a8.148,8.148,0,0,0-7.606-5.193Z" transform="translate(-910.968 -668.998)" fill="#007dff"/>
</svg>
