<svg xmlns="http://www.w3.org/2000/svg"
  xmlns:xlink="http://www.w3.org/1999/xlink" viewBox="0 0 53 61">
  <defs>
    <path id="a" d="M.5.7h51.9v60H.5z"/>
  </defs>
  <clipPath id="b">
    <use xlink:href="#a" overflow="visible"/>
  </clipPath>
  <g fill="currentColor" clip-path="url(#b)">
    <path fill-opacity="0.2" d="M41.8 41c0-1 .3-2.1.9-2.9.6-.9 1.4-1.5 2.4-2 1-.4 2-.5 3.1-.3 1 .2 2 .7 2.7 1.4s1.2 1.7 1.4 2.7c.2 1 .1 2.1-.3 3.1s-1.1 1.8-2 2.4c-.9.6-1.9.9-2.9.9-1.4 0-2.8-.6-3.7-1.6-1.1-1-1.6-2.3-1.6-3.7zm0-17.3c0-1 .3-2.1.9-2.9.6-.9 1.4-1.5 2.4-2 1-.4 2-.5 3.1-.3 1 .2 2 .7 2.7 1.4.7.7 1.2 1.7 1.4 2.7.2 1 .1 2.1-.3 3.1s-1.1 1.8-2 2.4c-.9.6-1.9.9-2.9.9-1.4 0-2.8-.6-3.7-1.6-1.1-1-1.6-2.3-1.6-3.7zm-17.7 0c0-1 .3-2.1.9-2.9.6-.9 1.4-1.5 2.4-2 1-.4 2-.5 3.1-.3 1 .2 2 .7 2.7 1.4.7.7 1.2 1.7 1.4 2.7.2 1 .1 2.1-.3 3.1s-1.1 1.8-2 2.4c-.9.6-1.9.9-2.9.9-.7 0-1.4-.1-2-.4s-1.2-.7-1.7-1.1c-.5-.5-.9-1.1-1.1-1.7-.3-.8-.5-1.4-.5-2.1zM41.8 6c0-1 .3-2.1.9-2.9.6-.9 1.4-1.5 2.4-2s2-.5 3.1-.3c1 .2 2 .7 2.7 1.4C51.5 3 52 4 52.2 5c.2 1 .1 2.1-.3 3.1s-1.1 1.8-2 2.4c-.9.6-1.9.9-2.9.9-1.4 0-2.8-.6-3.7-1.6-1-1-1.5-2.4-1.5-3.8zM24.1 6c0-1 .3-2.1.9-2.9.6-.9 1.4-1.5 2.4-2 1-.4 2-.5 3.1-.3 1 .2 2 .7 2.7 1.4.7.8 1.2 1.8 1.4 2.8.2 1 .1 2.1-.3 3.1s-1.1 1.8-2 2.4c-.9.6-1.9.9-2.9.9-.7 0-1.4-.1-2-.4-.6-.3-1.2-.7-1.7-1.1-.5-.5-.9-1.1-1.1-1.7s-.5-1.5-.5-2.2zM6.5 6c0-1 .3-2.1.9-2.9s1.4-1.5 2.4-2 2-.5 3.1-.3c1 .2 2 .7 2.7 1.4C16.2 3 16.8 4 17 5c.2 1 .1 2.1-.3 3.1s-1.1 1.8-2 2.4c-.9.6-1.9.9-2.9.9-1.4 0-2.8-.6-3.7-1.6C7 8.8 6.5 7.4 6.5 6z" />
    <path d="M14.3 60.7h9.5c5.1 0 9.8-4 9.8-9.3v-7.8c0-4-3.6-5.8-4.7-6.2-1.1-.4-11.9-4-11.9-4V22.3c0-3.5-2.6-5.7-5.4-5.7-2.7 0-5.7 2-5.7 5.3v10.9S3.1 37 2.4 38c-.6 1-2.1 3.3-2.1 5.9V49c0 3.7 3.1 9.2 8.3 11v-3.1c-2.8-1.3-5.5-4.1-5.5-9v-3.4c0-4 2.8-6.7 2.8-6.7v6.4h2.8V22.3c0-1.8 1.2-2.9 2.8-2.9.4 0 .7.1 1.1.2.3.1.6.3.9.6.3.3.5.6.6.9.1.3.2.7.2 1.1v12.2c0 .7.2 1.3 1.6 1.7 1.3.4 10.1 3.3 11.4 3.8 1.3.5 3.6 1.2 3.6 4.7v6c0 3.9-2.7 7.4-7.3 7.4h-9.3v2.7z" />
  </g>
</svg>
