<svg xmlns="http://www.w3.org/2000/svg" xmlns:xlink="http://www.w3.org/1999/xlink" viewBox="0 0 26 26">
  <defs>
    <path id="a" d="M.5.5h25v25H.5z"/>
  </defs>
  <clipPath id="b">
    <use xlink:href="#a" overflow="visible"/>
  </clipPath>
  <g clip-path="url(#b)">
    <path d="M19.2 2.3l-1.8-.9c-1.5-.6-3.1-1-4.7-1S9.5.7 8 1.4C6.5 2 5.2 2.9 4.1 4s-2 2.4-2.6 3.9c-.6 1.5-1 3.1-1 4.7s.3 3.2 1 4.7c.6 1.5 1.5 2.8 2.6 3.9s2.4 2 3.9 2.6c1.5.6 3.1 1 4.7 1 2.5 0 4.9-.7 6.9-2.1l2.2 2.1c.2.2.4.4.7.5.3.1.6.2.8.2.4 0 .9-.1 1.2-.4.4-.2.6-.6.8-1 .2-.4.2-.8.1-1.3-.1-.4-.3-.8-.6-1.1l-2.2-2.2c1.4-2 2.2-4.4 2.1-6.9 0-1.6-.3-3.2-1-4.7-.2-.5-.4-.9-.7-1.4-.5-.9-3.3 2-2.9 2.9.5 1.1.7 2.2.7 3.4 0 1.6-.5 3.2-1.4 4.6s-2.2 2.4-3.7 3-3.2.8-4.8.5c-1.6-.3-3.1-1.1-4.2-2.3-1.1-1.2-1.9-2.6-2.2-4.2-.3-1.6-.2-3.2.5-4.8.6-1.5 1.7-2.8 3-3.7s2.9-1.4 4.6-1.4c1.2 0 2.4.2 3.5.7 1 .5 3.9-2.4 3.1-2.9z" fill="currentColor"/>
  </g>
</svg>