<svg xmlns="http://www.w3.org/2000/svg" width="941" height="198.5" viewBox="0 0 941 198.5">
  <g id="images" transform="translate(-69.5 -1601.5)">
    <path id="Прямоугольник_скругл._углы_6" data-name="Прямоугольник, скругл. углы 6" d="M1008,1616v97a60,60,0,0,1-60,60H751.783m-193.044,0H132a60,60,0,0,1-60-60v-97" fill="none" stroke="#dbdde6" stroke-linecap="round" stroke-width="5"/>
    <path id="Прямоугольник_скругл._углы_5" data-name="Прямоугольник, скругл. углы 5" d="M430,1604H716a20,20,0,0,1,20,20v81a20,20,0,0,1-20,20m-127.5,0H144" fill="none" stroke="#dbdde6" stroke-linecap="round" stroke-width="5"/>
    <path id="Прямоугольник_скругл._углы_8" data-name="Прямоугольник, скругл. углы 8" d="M617,1659v-11a20,20,0,0,1,20-20h51a20,20,0,0,1,20,20v51" fill="none" stroke="#dbdde6" stroke-linecap="round" stroke-width="5"/>
    <path id="Прямоугольник_скругл._углы_7" data-name="Прямоугольник, скругл. углы 7" d="M627.977,1797.717l-50.851-15.951a3.6,3.6,0,0,1-2.148-1.831l-2.679-5.375a12.538,12.538,0,0,1-1.3-5.54,12.374,12.374,0,0,1,12.336-12.383h30.014a3.615,3.615,0,0,0,3.22-5.23l-44.016-88.365a14.879,14.879,0,0,1-1.554-6.61c0-8.8,6.606-15.432,14.724-15.432a14.642,14.642,0,0,1,13.173,8.17l22.511,45.2a19.272,19.272,0,0,1,19.712-9.779h0l38.269,5.911a18.025,18.025,0,0,1,13.359,9.778l19.2,38.543c1.994,4.009-4.944,6.24-6.441,3.233l-19.2-38.543a10.816,10.816,0,0,0-8.016-5.869l-38.268-5.91a12.053,12.053,0,0,0-12.5,6.493l-2.9,5.827a3.741,3.741,0,0,1-6.44,0L592.454,1652.4a7.521,7.521,0,0,0-14.256,3.378,8.532,8.532,0,0,0,.791,4.027l44.02,88.367a10.838,10.838,0,0,1-9.661,15.69H583.334a5.15,5.15,0,0,0-5.136,5.156,5.22,5.22,0,0,0,.542,2.311l1.993,4,49.392,15.5a43.01,43.01,0,0,0,31.842-2.577s1.794-1,3.171-1.59c4.565-1.969,6.34,5.052,3.333,6.408-1.348.608-3.282,1.648-3.282,1.648a49.722,49.722,0,0,1-37.211,3.006ZM507.228,1681.009l-14.318-15.637a3.524,3.524,0,0,1,0-4.751l15.317-16.637a4.062,4.062,0,0,1,5.3,0c1.229,1.311,2.082,3.44.853,4.752l-9.452,10.294H525.02a3.979,3.979,0,0,1,3.98,3.98v.01a3.98,3.98,0,0,1-3.98,3.98H504.941l8.442,9.258c1.229,1.313.375,3.441-.853,4.752a4.061,4.061,0,0,1-5.3,0ZM538,1667a4,4,0,1,1,0-8h1a4,4,0,0,1,0,8Z" fill="#212225"/>
    <path id="Delete" d="M912.471,1664.847c0-6.734,4.163-11.294,10.583-11.294,5.768,0,10.257,3.665,10.257,11.081v1.662h-14.86v.014c0,3.253,1.918,5.256,4.944,5.256a4.109,4.109,0,0,0,4.19-2.529l5.6.369c-.852,4.049-4.488,6.677-9.887,6.677C916.577,1676.083,912.471,1671.765,912.471,1664.847Zm5.981-2.3h9.163a4.3,4.3,0,0,0-4.46-4.475A4.608,4.608,0,0,0,918.452,1662.546Zm-45.2,2.3c0-6.734,4.163-11.294,10.584-11.294,5.767,0,10.256,3.665,10.256,11.081v1.662H879.233v.014c0,3.253,1.918,5.256,4.944,5.256a4.109,4.109,0,0,0,4.19-2.529l5.6.369c-.852,4.049-4.489,6.677-9.887,6.677C877.358,1676.083,873.252,1671.765,873.252,1664.847Zm5.981-2.3H888.4a4.3,4.3,0,0,0-4.461-4.475A4.608,4.608,0,0,0,879.233,1662.546Zm-40.768,2.3c0-6.734,4.163-11.294,10.584-11.294,5.767,0,10.256,3.665,10.256,11.081v1.662h-14.86v.014c0,3.253,1.918,5.256,4.944,5.256a4.11,4.11,0,0,0,4.191-2.529l5.6.369c-.852,4.049-4.489,6.677-9.887,6.677C842.571,1676.083,838.465,1671.765,838.465,1664.847Zm5.981-2.3h9.163a4.3,4.3,0,0,0-4.46-4.475A4.609,4.609,0,0,0,844.446,1662.546Zm55.043,7.2v-11.364h-2.984v-4.546h2.984v-5.228h6.052v5.228h4.1v4.546h-4.1v10.569c0,1.677.838,2.131,2.046,2.131a8.293,8.293,0,0,0,1.506-.2l.951,4.5a11.76,11.76,0,0,1-3.281.568q-.264.011-.521.011C902.143,1675.967,899.461,1673.853,899.489,1669.748Zm-89.12,5.91v-29.094h10.4c8.779,0,14.149,5.455,14.149,14.519,0,9.092-5.369,14.575-14.234,14.575Zm6.151-5.27h3.907c5.469,0,8.353-2.813,8.353-9.305,0-6.464-2.884-9.248-8.339-9.248H816.52Zm46.731,5.262v-29.09h6.05v29.09Z" fill="#212225"/>
  </g>
</svg>
